<svg xmlns="http://www.w3.org/2000/svg" viewBox="0 0 138.83 39.44"><title>logo-ad-full</title><g id="Calque_2" data-name="Calque 2"><g id="Calque_1-2" data-name="Calque 1"><path d="M72.33,17.64a.2.2,0,0,1-.17.09h-3a.21.21,0,0,1-.17-.09.21.21,0,0,1,0-.19l1.5-5a.19.19,0,0,1,.17-.12h0a.18.18,0,0,1,.17.13l1.53,5a.21.21,0,0,1,0,.19m-.23-7.15a.53.53,0,0,0-.49-.35H69.86a.51.51,0,0,0-.48.35l-3.6,10.68a.5.5,0,0,0,.07.46.51.51,0,0,0,.42.22h1a.52.52,0,0,0,.49-.37l.54-1.78a.29.29,0,0,1,.28-.2h4.18a.29.29,0,0,1,.27.21l.53,1.77a.51.51,0,0,0,.49.37h1.12a.52.52,0,0,0,.48-.68Z"/><path d="M77.6,12h2.49a.28.28,0,0,1,.28.28v9a.51.51,0,0,0,.51.51H82a.5.5,0,0,0,.51-.51v-9a.29.29,0,0,1,.29-.28h2.48a.51.51,0,0,0,.51-.51v-.84a.51.51,0,0,0-.51-.51H77.6a.51.51,0,0,0-.51.51v.84a.51.51,0,0,0,.51.51"/><path d="M90.13,21.84h6.31a.5.5,0,0,0,.51-.5v-.78a.51.51,0,0,0-.51-.51H92.08a.29.29,0,0,1-.29-.28v-3a.28.28,0,0,1,.29-.28h3.44A.51.51,0,0,0,96,16v-.76a.51.51,0,0,0-.51-.51H92.08a.29.29,0,0,1-.29-.28V12.26a.29.29,0,0,1,.29-.29h4.36a.51.51,0,0,0,.51-.51v-.8a.51.51,0,0,0-.51-.51H90.13a.5.5,0,0,0-.5.51V21.34a.5.5,0,0,0,.5.5"/><path d="M107.82,20.05h-4.45a.29.29,0,0,1-.29-.28V10.65a.51.51,0,0,0-.51-.51h-1.15a.51.51,0,0,0-.51.51V21.34a.51.51,0,0,0,.51.51h6.4a.51.51,0,0,0,.51-.51v-.78a.51.51,0,0,0-.51-.51"/><path d="M112.64,21.84h1.15a.5.5,0,0,0,.51-.5V10.66a.51.51,0,0,0-.51-.51h-1.15a.5.5,0,0,0-.51.51V21.34a.5.5,0,0,0,.51.5"/><path d="M119.47,21.84h6.31a.5.5,0,0,0,.51-.5v-.78a.51.51,0,0,0-.51-.51h-4.36a.29.29,0,0,1-.29-.28v-3a.28.28,0,0,1,.29-.28h3.44a.51.51,0,0,0,.51-.51v-.76a.51.51,0,0,0-.51-.51h-3.44a.29.29,0,0,1-.29-.28V12.26a.29.29,0,0,1,.29-.29h4.36a.51.51,0,0,0,.51-.51v-.8a.51.51,0,0,0-.51-.51h-6.31a.5.5,0,0,0-.5.51V21.34a.5.5,0,0,0,.5.5"/><path d="M134.63,15.33h-1.92a.28.28,0,0,1-.29-.28V12.26a.29.29,0,0,1,.29-.29h2a1.65,1.65,0,0,1,1.06.35,1.23,1.23,0,0,1,.45,1v.38a1.67,1.67,0,0,1-.42,1.16,1.56,1.56,0,0,1-1.18.45m4.14,6.26a.49.49,0,0,0,0-.51l-2.54-4.32.18,0a2.55,2.55,0,0,0,.95-.46,2.72,2.72,0,0,0,.61-.75,3.16,3.16,0,0,0,.34-.9,4.16,4.16,0,0,0,.1-.91v-.51a2.76,2.76,0,0,0-.94-2.26,4.64,4.64,0,0,0-3-.79h-3.66a.6.6,0,0,0-.6.61V21.34a.51.51,0,0,0,.51.51h1.15a.51.51,0,0,0,.51-.51v-4a.29.29,0,0,1,.29-.28h1.21a.29.29,0,0,1,.25.15l2.37,4.34a.51.51,0,0,0,.44.27h1.34a.51.51,0,0,0,.45-.26"/><path d="M73.08,32.39a4.16,4.16,0,0,1-.43,2.11,1.87,1.87,0,0,1-1.72.75H69.11a.28.28,0,0,1-.28-.29V27.45a.27.27,0,0,1,.28-.28h1.82a1.9,1.9,0,0,1,1.72.71A3.92,3.92,0,0,1,73.08,30Zm-2.1-7H67.16a.51.51,0,0,0-.51.51V36.53a.51.51,0,0,0,.51.51H71c2.88,0,4.28-1.51,4.28-4.62V30c0-3.11-1.4-4.63-4.28-4.63"/><path d="M86.3,25.34H80a.51.51,0,0,0-.51.51V36.53A.51.51,0,0,0,80,37h6.3a.51.51,0,0,0,.51-.51v-.77a.51.51,0,0,0-.51-.51H82a.29.29,0,0,1-.29-.29V32a.29.29,0,0,1,.29-.29h3.44a.5.5,0,0,0,.5-.51v-.75a.5.5,0,0,0-.5-.51H82a.29.29,0,0,1-.29-.29V27.45a.28.28,0,0,1,.29-.28H86.3a.51.51,0,0,0,.51-.51v-.81a.51.51,0,0,0-.51-.51"/><path d="M104,25.34h-1.16a.5.5,0,0,0-.5.51V36.53a.5.5,0,0,0,.5.51H104a.51.51,0,0,0,.51-.51V25.85a.51.51,0,0,0-.51-.51"/><path d="M130,25.34h-.83a.51.51,0,0,0-.51.51v7.73a.15.15,0,0,1-.13.16.19.19,0,0,1-.23-.09l-4.36-8a.5.5,0,0,0-.45-.27H122a.51.51,0,0,0-.51.51V36.53A.51.51,0,0,0,122,37h.84a.51.51,0,0,0,.51-.51V28.86a.17.17,0,0,1,.13-.18h0a.18.18,0,0,1,.16.12c0,.07,4.22,7.66,4.4,8a.51.51,0,0,0,.44.26H130a.51.51,0,0,0,.51-.51V25.85a.51.51,0,0,0-.51-.51"/><path d="M116.65,30.7h-3a.51.51,0,0,0-.51.51v.68a.51.51,0,0,0,.51.51h1.15a.2.2,0,0,1,.23.22v.07a5.53,5.53,0,0,1-.09,1,2.44,2.44,0,0,1-.32.86,1.65,1.65,0,0,1-.61.62,1.84,1.84,0,0,1-1,.24,1.68,1.68,0,0,1-1.61-.8,4.53,4.53,0,0,1-.42-2.15v-2.9a4.68,4.68,0,0,1,.1-1,2.53,2.53,0,0,1,.35-.84,1.61,1.61,0,0,1,.69-.57,2.31,2.31,0,0,1,1-.21,1.88,1.88,0,0,1,.86.18,1.75,1.75,0,0,1,.8.83l0,.05a.48.48,0,0,0,.42.25h0l.15,0h0l1-.1a.47.47,0,0,0,.45-.47.69.69,0,0,0,0-.13l0-.08a3.43,3.43,0,0,0-.76-1.17,3.86,3.86,0,0,0-1.28-.82,4.87,4.87,0,0,0-1.83-.31,4,4,0,0,0-3.08,1.17,4.7,4.7,0,0,0-1.1,3.32v3.08a4.7,4.7,0,0,0,1.1,3.32A4.07,4.07,0,0,0,113,37.22a4.5,4.5,0,0,0,1.72-.31A3.63,3.63,0,0,0,116,36a3.83,3.83,0,0,0,.83-1.4,5.63,5.63,0,0,0,.3-1.91V31.21a.51.51,0,0,0-.51-.51"/><path d="M92.54,34.46l0-.1a.47.47,0,0,0-.43-.32h0l-1.19.13a.48.48,0,0,0-.47.47s0,.19,0,.22a.93.93,0,0,1,0,.13,3.21,3.21,0,0,0,.69,1.15,3.46,3.46,0,0,0,1.23.78,5,5,0,0,0,1.83.3,5.6,5.6,0,0,0,1.86-.28,3.39,3.39,0,0,0,1.22-.73,2.78,2.78,0,0,0,.68-1,3.27,3.27,0,0,0,.21-1.13v-.32a3,3,0,0,0-.22-1.2,3.09,3.09,0,0,0-.67-1,5.81,5.81,0,0,0-1.14-.84A18.07,18.07,0,0,0,94.53,30l-1-.45a4,4,0,0,1-.65-.37,1.06,1.06,0,0,1-.35-.4,1,1,0,0,1-.09-.44v-.17a1.13,1.13,0,0,1,.38-.83A1.77,1.77,0,0,1,94.08,27a2,2,0,0,1,1,.22,1.83,1.83,0,0,1,.61.51,2,2,0,0,1,.17.28.47.47,0,0,0,.43.3h0l1.26-.11a.46.46,0,0,0,.44-.48s0-.19-.06-.26a3.14,3.14,0,0,0-.75-1.2A3.47,3.47,0,0,0,96,25.44a4.87,4.87,0,0,0-1.75-.28,5.14,5.14,0,0,0-1.83.28,3.57,3.57,0,0,0-1.21.72,2.62,2.62,0,0,0-.66,1,3.05,3.05,0,0,0-.21,1.09v.28a2.93,2.93,0,0,0,.2,1.13,2.74,2.74,0,0,0,.6.85,4.27,4.27,0,0,0,1,.68c.4.21.87.42,1.41.64s.89.39,1.2.54a4.5,4.5,0,0,1,.77.49,1.55,1.55,0,0,1,.41.54A1.51,1.51,0,0,1,96,34v.15a1.25,1.25,0,0,1-.38.9,2,2,0,0,1-1.42.39,2.14,2.14,0,0,1-1-.19,1.5,1.5,0,0,1-.57-.48c-.06-.09-.1-.19-.14-.26Z"/><path d="M92.69,34.44Z"/><path d="M13.75,23.92l4.19-13.64,4.6,13.64ZM50,5.75a18.34,18.34,0,0,0-3.27-2.68l-.38-.25-.09-.06A18.11,18.11,0,0,0,36.66,0H29.94a1.43,1.43,0,0,0-1.35,1.93l2.3,6.34a1,1,0,0,0,.93.66h4.84a10,10,0,0,1,7.08,3.25A10.48,10.48,0,0,1,45,13.82a11.54,11.54,0,0,1,1.31,3.06,11.77,11.77,0,0,1,.39,2.83,11.42,11.42,0,0,1-2.93,7.54,10,10,0,0,1-7.08,3.26H33.3L23.24,1.72A2,2,0,0,0,21.12.27H14.84a2,2,0,0,0-2.07,1.47L.16,37.63A1.59,1.59,0,0,0,.14,39a1.6,1.6,0,0,0,1.32.43H7.4a2,2,0,0,0,2.12-1.52l1.89-5.53H24.66l1.89,5.55a1.9,1.9,0,0,0,2.06,1.5h8a18.14,18.14,0,0,0,9.58-2.76l.07,0,.37-.25a17.78,17.78,0,0,0,3.3-2.7,20.15,20.15,0,0,0,5.67-13.91v-.12A20.17,20.17,0,0,0,50,5.75"/></g></g></svg>