<?xml version="1.0" encoding="utf-8"?>
<!-- Generator: Adobe Illustrator 24.3.0, SVG Export Plug-In . SVG Version: 6.00 Build 0)  -->
<svg version="1.1" id="Calque_1" xmlns="http://www.w3.org/2000/svg" xmlns:xlink="http://www.w3.org/1999/xlink" x="0px" y="0px"
	 viewBox="0 0 184 62" style="enable-background:new 0 0 184 62;" xml:space="preserve">
<style type="text/css">
	.st0{fill:#FFFFFF;}
</style>
<path d="M6.7,9C6.9,9,7.1,9.1,7.2,9.2c0.3,0.1,7.8,1.4,8.4,1.5c0.3,0,0.4,0.1,0.5,0.5c0.1,0.8,2.4,15.2,2.5,15.6
	c0,0.1,0.2,0.3,0.3,0.4c2,0.8,3.9,1.7,5.9,2.5c0.1,0.1,0.4,0,0.5,0c3.7-1.8,7.4-3.6,11.1-5.4c0,0,0.1,0,0.2,0c0,0.1,0,0.3,0,0.4
	c-0.1,1-3.2,24-3.4,24.7c0,0.2-0.2,0.4-0.3,0.4c-1.2,0.6-6.2,3-7.5,3.7c-0.2,0.1-0.4,0.1-0.6,0c-3.6-1.5-7.1-2.9-10.7-4.4
	c-0.1-0.1-0.3-0.3-0.3-0.4c-0.2-1.3-0.7-5.2-0.9-5.9c0-0.2-0.1-0.5-0.1-0.8c1,0.5,2,0.9,3,1.3c0-0.4-3.6-26.1-3.7-26.8
	c0-0.3,0-0.6-0.1-0.8c-0.1-0.2-0.3-0.4-0.5-0.5c-0.9-0.4-3.6-1.5-4-1.7c-0.1-0.1-0.3-0.2-0.3-0.4C7.1,12,6.8,9.4,6.7,9z M19.6,33.8
	c0,0.2,0,0.4,0.1,0.5c0.2,1.2,0.4,2.4,0.6,3.6c0.2,1.4,0.4,2.8,0.7,4.2c0.2,1,0.3,1.9,0.5,2.9c0,0.1,0.1,0.3,0.3,0.3
	c1,0.4,2.1,0.8,3.1,1.2c0.2,0.1,0.4,0,0.6-0.1c1.1-0.6,2.2-1.1,3.3-1.7c0.2-0.1,0.4-0.3,0.4-0.5c0.1-0.5,0.1-1,0.2-1.4
	c0.3-2.4,0.7-4.8,1-7.2c0.1-0.7,0.2-1.4,0.3-2c0-0.3-0.1-0.3-0.3-0.3c-0.1,0-0.1,0.1-0.2,0.1c-1.6,0.8-3.2,1.6-4.8,2.4
	c-0.1,0-0.3,0.1-0.3,0c-0.6-0.2-1.2-0.4-1.7-0.7c-1.1-0.4-2.1-0.9-3.2-1.3C19.9,33.8,19.8,33.8,19.6,33.8z"/>
<path d="M47.1,43.6c0.1-0.4,0.1-0.7,0.1-1.1c0-3.4,0-6.8,0-10.1c0-0.3,0-0.6,0-1c0-0.2-0.1-0.4-0.2-0.6c0.1,0,0.2,0,0.4,0
	c4.6,0,9.3,0,13.9,0c1.1,0,2.2,0.7,2.7,2c0.5,1.3,0.4,2.5-0.5,3.7c-0.2,0.2-0.1,0.3,0.1,0.5c0.4,0.5,0.9,0.9,1.1,1.5
	c0.8,1.9-0.1,3.9-2,4.7c-0.6,0.3-1.3,0.5-2,0.5c-4.3,0-8.6,0-12.8,0C47.5,43.6,47.3,43.6,47.1,43.6z M55.4,38.4
	C55.4,38.4,55.4,38.4,55.4,38.4c-0.9,0-1.7,0-2.6,0c-0.2,0-0.4,0.1-0.4,0.3c0,0.5,0,1.1,0,1.6c0,0.4,0.2,0.5,0.5,0.5
	c0.7,0,1.4,0,2.2,0c0.9,0,1.8,0,2.8,0c0.8,0,1.3-0.5,1.3-1.2c0-0.6-0.5-1.1-1.3-1.1C57,38.4,56.2,38.4,55.4,38.4z M55.3,35.6
	C55.3,35.6,55.3,35.6,55.3,35.6c0.8,0,1.6,0,2.4,0c0.5,0,0.9-0.4,0.9-0.9c0-0.5-0.4-1-0.9-1c-1.6,0-3.3,0-4.9,0
	c-0.3,0-0.4,0.1-0.4,0.4c0,0.4,0,0.7,0,1.1c0,0.3,0.1,0.4,0.4,0.4C53.7,35.6,54.5,35.6,55.3,35.6z"/>
<path d="M141.4,30.8c0.2,0,0.4,0,0.5,0c1.7,0,3.4,0,5.1,0c0.2,0,0.4,0.1,0.5,0.2c0.9,1,1.7,2,2.6,3.1c0.9,1.1,1.8,2.2,2.7,3.3
	c0.1,0.1,0.2,0.1,0.3,0.2c0-0.1,0.1-0.2,0.1-0.3c0-1.9,0-3.9,0-5.8c0-0.2-0.1-0.4-0.1-0.6c1.9,0,3.7,0,5.5,0c0,0.4-0.1,0.8-0.1,1.1
	c0,3.6,0,7.2,0,10.8c0,0.2,0,0.5,0.1,0.8c-0.1,0-0.3,0-0.4,0c-1.9,0-3.8,0-5.7,0c-0.4,0-0.6-0.1-0.8-0.4c-1.2-1.6-2.5-3.2-3.8-4.7
	c-0.2-0.3-0.4-0.5-0.7-0.8c-0.1-0.1-0.2-0.2-0.4-0.3c0,2.1,0,4.1,0,6.2c-1.8,0-3.6,0-5.4,0c0-0.4,0.1-0.8,0.1-1.2
	c0-3.6,0-7.3,0-10.9C141.5,31.3,141.4,31.1,141.4,30.8z"/>
<path d="M86.2,30.8c0.3,0,0.6,0,1,0c4.2,0,8.4,0,12.6,0c2.2,0,3.8,1.6,3.9,3.8c0,1.4-0.4,2.6-1.5,3.5c-0.3,0.2-0.6,0.3-0.9,0.5
	c-0.3,0.2-0.4,0.3-0.2,0.6c0.8,1.2,1.6,2.4,2.4,3.6c0.2,0.2,0.4,0.5,0.6,0.7c-2.3,0-4.5,0-6.8,0c0.4-0.5,0-0.8-0.2-1.1
	c-0.7-1.2-1.5-2.3-2.2-3.4c-0.2-0.3-0.5-0.5-0.9-0.4c-0.6,0-1.2,0-1.8,0c-0.3,0-0.4,0.1-0.4,0.5c0,1.1,0,2.2,0,3.4
	c0,0.4,0.1,0.8,0.2,1.2c-1.8,0-3.8,0-5.7,0c0.6-0.8,0.3-1.6,0.3-2.4c0-3,0-5.9,0-8.9C86.6,31.8,86.6,31.3,86.2,30.8
	C86.1,30.9,86.2,30.9,86.2,30.8z M94.7,35.7C94.7,35.7,94.7,35.7,94.7,35.7c0.8,0,1.7,0,2.5,0c0.6,0,0.9-0.3,1-0.8
	c0-0.7-0.3-1.1-0.9-1.1c-1.7,0-3.4,0-5.1,0c-0.3,0-0.4,0.1-0.4,0.4c0,0.4,0,0.7,0,1.1c0,0.3,0.1,0.4,0.4,0.4
	C93,35.6,93.9,35.7,94.7,35.7z"/>
<path d="M129.7,44c-1.7,0-3.4-0.2-5.1-0.9c-1.4-0.6-2.6-1.3-3.3-2.7c-0.5-1-0.8-2-0.8-3.1c0-1.2,0.2-2.3,0.8-3.4
	c0.8-1.3,1.9-2,3.3-2.5c1.4-0.6,2.9-0.8,4.4-0.8c1.1,0,2.3,0,3.4,0.2c1.4,0.2,2.8,0.7,4.1,1.5c1.5,1,2.2,2.4,2.4,4.1
	c0.2,1.4,0.1,2.8-0.7,4c-0.8,1.3-1.9,2.2-3.3,2.7C133.2,43.8,131.5,44,129.7,44z M129.7,40.9c1,0.1,1.8-0.3,2.6-1
	c1-0.9,1.4-2.4,1-3.6c-0.6-1.9-2.9-3.1-4.8-2.4c-1.7,0.6-2.8,2.3-2.5,4.1C126.3,39.5,127.8,40.9,129.7,40.9z"/>
<path d="M161.5,30.9c0.3,0,0.7,0,1,0c4.4,0,8.9,0,13.3,0c0.5,0,0.9-0.1,1.4-0.1c0,1,0,2.1,0,3.3c-0.4-0.4-0.8-0.4-1.2-0.4
	c-2.8,0-5.6,0-8.4,0c-0.5,0-0.6,0.1-0.6,0.6c0,0.3,0,0.7,0,1c0,0.6,0,0.6,0.6,0.6c1.7,0,3.5,0,5.2,0c0.6,0,1.2,0,1.8,0
	c0.2,0,0.5-0.1,0.7-0.2c0,1,0,2,0,3c-1.1-0.4-2.3-0.2-3.4-0.2c-1.5,0-2.9,0-4.4,0c-0.4,0-0.5,0.1-0.5,0.5c0,0.5,0,0.9,0,1.4
	c0,0.5,0.1,0.5,0.5,0.5c1.1,0,2.1,0,3.2,0c1.7,0,3.4,0,5.2,0c0.5,0,1.1,0.2,1.6-0.3c0,1.2,0,2.3,0,3.6c-0.5-0.6-1.1-0.5-1.7-0.5
	c-4.4,0-8.9,0-13.3,0c-0.3,0-0.7,0-1.1,0c0.4-0.7,0.3-1.3,0.3-2c0-3.3,0-6.5,0-9.8C161.7,31.6,161.6,31.3,161.5,30.9z"/>
<path d="M67.5,43.6c0.1-0.4,0.2-0.8,0.2-1.2c0-3.4,0-6.9,0-10.3c0-0.4,0-0.9-0.4-1.3c0.2,0,0.2,0,0.3,0c4.6,0,9.3,0,13.9,0
	c0.6,0,1.3,0.2,1.8-0.4c0,1.2,0,2.3,0,3.5c-0.6-0.5-1.2-0.4-1.9-0.4c-2.6,0-5.2,0-7.9,0c-0.5,0-0.5,0-0.5,0.5c0,0.4,0,0.8,0,1.2
	c0,0.5,0.1,0.5,0.5,0.5c1.6,0,3.2,0,4.8,0c0.6,0,1.2,0,1.8,0c0.4,0,0.8-0.1,1.2-0.2c0,0.9,0,1.9,0,2.9c-1.3-0.3-2.5-0.1-3.7-0.1
	c-1.2,0-2.5,0-3.7,0c-0.8,0-0.8,0-0.8,0.8c0,0.4,0,0.8,0,1.2c0,0.2,0.1,0.4,0.4,0.4c0.1,0,0.2,0,0.4,0c2.7,0,5.4,0,8.1,0
	c0.5,0,1-0.1,1.6-0.1c0,1,0,2.1,0,3.2c-0.1,0-0.1,0-0.1,0c-0.4-0.3-0.9-0.3-1.5-0.3c-4.6,0-9.1,0-13.7,0
	C68,43.6,67.8,43.6,67.5,43.6z"/>
<path d="M104.9,34.1c0-1.1,0-2.2,0-3.4c0.8,0.3,1.6,0.1,2.4,0.1c3.7,0,7.4,0,11,0c0.4,0,0.9,0,1.3-0.1c0,1.1,0,2.2,0,3.3
	c-0.4,0-0.7-0.1-1-0.1c-1.1,0-2.1,0-3.2,0c-0.4,0-0.5,0.1-0.5,0.5c0,2.7,0,5.5,0,8.2c0,0.3,0.2,0.6,0.3,0.9c-2,0-4,0-6.1,0
	c0,0-0.1,0-0.1-0.1c0.5-0.4,0.5-0.9,0.5-1.4c0-2.6,0-5.2,0-7.8c0-0.3-0.2-0.3-0.5-0.3c-1.1,0-2.3,0-3.4,0
	C105.5,34,105.2,34,104.9,34.1z"/>
<path class="st0" d="M19.6,33.8c0.2,0,0.3,0,0.4,0.1c1.1,0.4,2.1,0.9,3.2,1.3c0.6,0.2,1.2,0.5,1.7,0.7c0.1,0,0.2,0,0.3,0
	c1.6-0.8,3.2-1.6,4.8-2.4c0.1,0,0.1-0.1,0.2-0.1c0.2-0.1,0.4,0,0.3,0.3c-0.1,0.7-0.2,1.4-0.3,2c-0.3,2.4-0.7,4.8-1,7.2
	c-0.1,0.5-0.1,1-0.2,1.4c0,0.3-0.1,0.4-0.4,0.5c-1.1,0.6-2.2,1.1-3.3,1.7c-0.2,0.1-0.4,0.1-0.6,0.1c-1.1-0.4-2.1-0.8-3.1-1.2
	c-0.1,0-0.2-0.2-0.3-0.3c-0.2-1-0.4-1.9-0.5-2.9c-0.2-1.4-0.4-2.8-0.7-4.2c-0.2-1.2-0.4-2.4-0.6-3.6C19.7,34.2,19.7,34,19.6,33.8z"
	/>
<path class="st0" d="M55.4,38.4c0.8,0,1.6,0,2.5,0c0.7,0,1.2,0.5,1.3,1.1c0,0.7-0.5,1.2-1.3,1.2c-0.9,0-1.8,0-2.8,0
	c-0.7,0-1.4,0-2.2,0c-0.3,0-0.5-0.1-0.5-0.5c0-0.5,0-1.1,0-1.6c0-0.3,0.2-0.3,0.4-0.3C53.7,38.4,54.5,38.4,55.4,38.4
	C55.4,38.4,55.4,38.4,55.4,38.4z"/>
<path class="st0" d="M55.3,35.6c-0.8,0-1.6,0-2.4,0c-0.3,0-0.4-0.1-0.4-0.4c0-0.4,0-0.7,0-1.1c0-0.3,0.1-0.4,0.4-0.4
	c1.6,0,3.3,0,4.9,0c0.5,0,0.9,0.5,0.9,1c0,0.5-0.4,0.9-0.9,0.9C57,35.6,56.1,35.6,55.3,35.6C55.3,35.6,55.3,35.6,55.3,35.6z"/>
<path class="st0" d="M94.7,35.7c-0.9,0-1.7,0-2.6,0c-0.3,0-0.4-0.1-0.4-0.4c0-0.4,0-0.7,0-1.1c0-0.3,0.1-0.5,0.4-0.4
	c1.7,0,3.4,0,5.1,0c0.6,0,0.9,0.4,0.9,1.1c0,0.5-0.4,0.8-1,0.8C96.4,35.6,95.6,35.7,94.7,35.7C94.7,35.7,94.7,35.7,94.7,35.7z"/>
<path class="st0" d="M129.7,40.9c-1.9,0.1-3.4-1.4-3.7-2.8c-0.4-1.8,0.7-3.5,2.5-4.1c2-0.7,4.2,0.5,4.8,2.4c0.4,1.2,0,2.7-1,3.6
	C131.5,40.6,130.7,40.9,129.7,40.9z"/>
</svg>
