<?xml version="1.0" encoding="utf-8"?>
<!-- Generator: Adobe Illustrator 27.0.0, SVG Export Plug-In . SVG Version: 6.00 Build 0)  -->
<svg version="1.1" id="Artwork" xmlns="http://www.w3.org/2000/svg" xmlns:xlink="http://www.w3.org/1999/xlink" x="0px" y="0px"
	 viewBox="0 0 2136 1320" style="enable-background:new 0 0 2136 1320;" xml:space="preserve">
<style type="text/css">
	.st0{fill:url(#SVGID_1_);}
	.st1{fill:url(#SVGID_00000026869707724537243100000004243230151665249974_);}
	.st2{fill:url(#SVGID_00000061448251659799766730000000080108558711457945_);}
	.st3{fill:#00933A;}
	.st4{fill:#FFFFFF;}
	.st5{fill:#D51224;}
	.st6{fill:url(#SVGID_00000075137912643768158890000001892326922786407572_);}
	.st7{fill:#282727;}
	.st8{fill:url(#SVGID_00000035525254937338357100000011705581766266593428_);}
	.st9{fill:#4A4A49;}
	.st10{fill:url(#SVGID_00000004513588918150929870000002786647656233944973_);}
	.st11{fill:url(#SVGID_00000009586157488418604610000000430400893406059167_);}
	.st12{fill:url(#SVGID_00000003826829131173800590000013762157739658209436_);}
	.st13{fill:url(#SVGID_00000002360468302490710460000016018520484753087134_);}
	.st14{fill:url(#SVGID_00000108302255038642834790000018157513059487708040_);}
	.st15{fill:url(#SVGID_00000136398013530041775720000000053727957699992975_);}
	.st16{fill:url(#SVGID_00000182521235771218298730000014524734050327709075_);}
	.st17{fill:url(#SVGID_00000173878310096830087210000009579451282410009014_);}
	.st18{fill:url(#SVGID_00000167395936482162296690000005111134581806184366_);}
	.st19{fill:url(#SVGID_00000080902810208988521230000011295090459311084692_);}
	.st20{fill:url(#SVGID_00000030479659350792742310000014081279276855949982_);}
	.st21{fill:url(#SVGID_00000120542065860143665920000003245719702323187359_);}
	.st22{fill:url(#SVGID_00000173138575269296969900000017070897435966997143_);}
	.st23{fill:url(#SVGID_00000181771368762124581560000005303655574455767692_);}
	.st24{fill:url(#SVGID_00000096758630181128995460000010129601159672724870_);}
	.st25{fill:url(#SVGID_00000060720840894312893450000012793928718465286804_);}
	.st26{fill:url(#SVGID_00000164484282904512261300000005985064636820077481_);}
	.st27{fill:url(#SVGID_00000007403304416535823690000013270981627086999190_);}
	.st28{fill:url(#SVGID_00000103262894565300949050000016437745784409998261_);}
	.st29{fill:url(#SVGID_00000011720336740241269810000006928336276858431379_);}
	.st30{fill:url(#SVGID_00000141436907942611292840000017524434501682445981_);}
	.st31{opacity:0.7;fill:url(#SVGID_00000034801817488588314150000005815779200775718312_);}
	.st32{fill:url(#SVGID_00000153678229653630894000000007288752572171927998_);}
	.st33{fill:#494644;}
	.st34{fill:#B2B2B2;}
	.st35{fill:#696768;}
	.st36{fill:#1B1B1A;}
	.st37{fill:#333333;}
	.st38{fill:#3C3C3B;}
	.st39{fill:url(#SVGID_00000047748848838611559090000003391790505425376693_);}
	.st40{fill:#404040;}
	.st41{fill:url(#SVGID_00000028292334699592536510000015198210971131869604_);}
	.st42{fill:#333332;}
	.st43{fill:#0D0D0D;}
</style>
<linearGradient id="SVGID_1_" gradientUnits="userSpaceOnUse" x1="109.6913" y1="838.2986" x2="261.8849" y2="1101.9056">
	<stop  offset="0" style="stop-color:#FFFFFF"/>
	<stop  offset="1.676284e-03" style="stop-color:#FBFBFB"/>
	<stop  offset="2.443000e-02" style="stop-color:#CECECE"/>
	<stop  offset="4.894900e-02" style="stop-color:#A4A4A4"/>
	<stop  offset="7.639814e-02" style="stop-color:#7F7F7F"/>
	<stop  offset="0.1063" style="stop-color:#5E5E5E"/>
	<stop  offset="0.1393" style="stop-color:#434343"/>
	<stop  offset="0.1766" style="stop-color:#2D2D2D"/>
	<stop  offset="0.2201" style="stop-color:#1C1C1C"/>
	<stop  offset="0.274" style="stop-color:#101010"/>
	<stop  offset="0.3495" style="stop-color:#0A0A0A"/>
	<stop  offset="0.5591" style="stop-color:#080808"/>
	<stop  offset="0.6901" style="stop-color:#0B0B0B"/>
	<stop  offset="0.7745" style="stop-color:#131313"/>
	<stop  offset="0.8458" style="stop-color:#222222"/>
	<stop  offset="0.9098" style="stop-color:#373737"/>
	<stop  offset="0.9683" style="stop-color:#525151"/>
	<stop  offset="1" style="stop-color:#646363"/>
</linearGradient>
<path class="st0" d="M331.3,964.8c8.7-11.7,12.6-25.6,11-43.7c-2-22-20.7-52.5-51.2-52.5H57.1v7.9c8.1,2,14.9,8.7,14.9,16.9v161.4
	c0,6.9-3.4,13.8-14.2,15.7v8.6h227.6c29.7,0,65.3-26.3,66.7-63.6C353.1,985.3,335,968.8,331.3,964.8z M167.9,931.4
	c0,0,66.3,0,66.3,0c2.4,0,4.3,2,4.3,4.3c0,2.4-1.9,4.3-4.3,4.3v0h-66.3V931.4z M235.7,1018.9h-68.6v-16.5h68.4
	c5.4,0,13.1,2.2,13.1,8.7C248.7,1015.2,242.8,1018.9,235.7,1018.9z"/>
<path d="M321.9,966.5c0,0,16.9-12,15.1-43.4c-1.1-19.8-18.3-47.7-45-47.7H69.3v1.8c4,0.5,9.3,3.9,9.3,8.7v177.4
	c0,4.8-5.3,8.1-9.3,8.7v1.8h212.5c27.7,0,64.8-22.2,64.8-58.5C346.5,982.2,321.9,966.5,321.9,966.5z M160,923.4h78.3
	c2.8,0,5.2,0.8,7.1,2.2c2.3,2.2,3.6,5.5,3.6,9.7c0,5.9-3.2,12.7-12.4,12.7H160V923.4z M237.9,1026.9h-78.7v-32.4h79.9
	c9.3,0,17.6,7.3,17.6,16.2C256.7,1019.7,247.8,1026.9,237.9,1026.9z"/>
<linearGradient id="SVGID_00000171687519022109740980000013445184321737460399_" gradientUnits="userSpaceOnUse" x1="700.8091" y1="838.0073" x2="866.4413" y2="1124.8906">
	<stop  offset="0" style="stop-color:#EDEDED"/>
	<stop  offset="9.086967e-03" style="stop-color:#DFDFDF"/>
	<stop  offset="3.152609e-02" style="stop-color:#BFBFBF"/>
	<stop  offset="5.672577e-02" style="stop-color:#A1A0A0"/>
	<stop  offset="8.417439e-02" style="stop-color:#858584"/>
	<stop  offset="0.1145" style="stop-color:#6C6B6B"/>
	<stop  offset="0.1487" style="stop-color:#575656"/>
	<stop  offset="0.1887" style="stop-color:#454444"/>
	<stop  offset="0.2382" style="stop-color:#383837"/>
	<stop  offset="0.3075" style="stop-color:#2C2C2B"/>
	<stop  offset="0.5" style="stop-color:#282727"/>
	<stop  offset="0.6986" style="stop-color:#2D2D2C"/>
	<stop  offset="0.81" style="stop-color:#3A3A39"/>
	<stop  offset="0.8998" style="stop-color:#494948"/>
	<stop  offset="0.9776" style="stop-color:#5D5D5C"/>
	<stop  offset="1" style="stop-color:#646363"/>
</linearGradient>
<path style="fill:url(#SVGID_00000171687519022109740980000013445184321737460399_);" d="M929.5,1050.2c-5.5-8.7-5-8-24.3-37.2
	c-5.1-8.4-1.1-13.6,4-17.5c10-7.6,28.1-24.9,28.1-55.9c0-42.7-29.9-70.9-63.8-70.9c-4.4,0-225.8,0-225.8,0v8
	c9.3,3.4,15.8,11.5,15.8,17.9v157.9c0,9.5-4,17.1-13.9,20.4v6.3h120.9v-7.7c-9.2-4.7-13.1-11.8-13.1-20.4v-48.9c0,0,21.7,0,24.1,0
	c2.4,0,6.5,1.4,8.3,4.2c4.3,6.7,26.8,41.2,31.6,48.7c3.6,5.6,5.1,13.1-3.8,18.2v5.9h128v-13C938.9,1063,935.6,1059.7,929.5,1050.2z
	 M833.6,954.8h-87.3v-36.5h88c10.1,0,17.2,7.2,17.2,18.2C851.5,946.6,844.9,954.8,833.6,954.8z"/>
<linearGradient id="SVGID_00000103232542568417840130000010262246501164306355_" gradientUnits="userSpaceOnUse" x1="1252.8114" y1="880.8911" x2="1443.0278" y2="1071.1075">
	<stop  offset="0" style="stop-color:#EDEDED"/>
	<stop  offset="1.637506e-02" style="stop-color:#E3E3E3"/>
	<stop  offset="8.647117e-02" style="stop-color:#BABABA"/>
	<stop  offset="0.1574" style="stop-color:#949493"/>
	<stop  offset="0.2278" style="stop-color:#727271"/>
	<stop  offset="0.2976" style="stop-color:#575655"/>
	<stop  offset="0.3666" style="stop-color:#41403F"/>
	<stop  offset="0.4345" style="stop-color:#313130"/>
	<stop  offset="0.5" style="stop-color:#282727"/>
	<stop  offset="0.6378" style="stop-color:#313130"/>
	<stop  offset="0.7806" style="stop-color:#41403F"/>
	<stop  offset="0.9252" style="stop-color:#565655"/>
	<stop  offset="1" style="stop-color:#646363"/>
</linearGradient>
<path style="fill:url(#SVGID_00000103232542568417840130000010262246501164306355_);" d="M1431.6,881.3
	c-25.3-10.6-52.8-15.2-84-15.2c-48.3,0-90,12.2-114.2,34.3c-26.8,24.5-32.4,54.5-32.4,75.3c0,33.3,14.6,63,40.1,82.1
	c24.4,18.3,62.9,27.9,106.4,27.9c44.7,0,85.7-11.1,110.3-30.5c24.2-19,36.4-47.6,36.4-80.7C1494.4,932.5,1470.8,897.7,1431.6,881.3z
	 M1347.8,1020.5c-25.7,0-46.5-19.9-46.5-44.5c0-24.6,20.8-44.5,46.5-44.5c25.7,0,46.5,19.9,46.5,44.5
	C1394.3,1000.5,1373.5,1020.5,1347.8,1020.5z"/>
<rect x="58.3" y="1139.1" class="st3" width="671.4" height="34.2"/>
<rect x="729.7" y="1139.1" class="st4" width="671.4" height="34.2"/>
<rect x="1401" y="1139.1" class="st5" width="671.4" height="34.2"/>
<linearGradient id="SVGID_00000168106812203058740650000009044979638287180168_" gradientUnits="userSpaceOnUse" x1="1019.6205" y1="828.3816" x2="1158.0701" y2="1068.1832">
	<stop  offset="0" style="stop-color:#EDEDED"/>
	<stop  offset="9.086967e-03" style="stop-color:#DFDFDF"/>
	<stop  offset="3.152609e-02" style="stop-color:#BFBFBF"/>
	<stop  offset="5.672577e-02" style="stop-color:#A1A0A0"/>
	<stop  offset="8.417439e-02" style="stop-color:#858584"/>
	<stop  offset="0.1145" style="stop-color:#6C6B6B"/>
	<stop  offset="0.1487" style="stop-color:#575656"/>
	<stop  offset="0.1887" style="stop-color:#454444"/>
	<stop  offset="0.2382" style="stop-color:#383837"/>
	<stop  offset="0.3075" style="stop-color:#2C2C2B"/>
	<stop  offset="0.5" style="stop-color:#282727"/>
	<stop  offset="0.6646" style="stop-color:#2E2E2D"/>
	<stop  offset="0.7887" style="stop-color:#3C3C3B"/>
	<stop  offset="0.8991" style="stop-color:#4E4D4C"/>
	<stop  offset="1" style="stop-color:#646363"/>
</linearGradient>
<path style="fill:url(#SVGID_00000168106812203058740650000009044979638287180168_);" d="M1186.9,859.8c-4.3,5.8-7.1,9.1-15.6,9.1
	H974.9c-8.5,0-12.5-4.4-15.9-9.1h-5.4v81.4h5.4c3.5-4.3,6.5-8.4,15-8.4h50.9v118.6c0,10.5-5.4,16.2-15.4,21.2v6.6h127.2v-6.6
	c-10.9-6-15.4-12.6-15.3-21.2V932.8h50.8c8.5,0,11.5,4.1,15,8.4h5.4v-81.4H1186.9z"/>
<path class="st7" d="M1185.1,869.6c-1.2,2.2-3.3,5.6-8.1,5.6H970.5c-4.8,0-6.9-3.5-8.1-5.6l-2.2,0.4v61.7l1.9,0.6
	c1.9-3,3.1-5.4,10.1-5.4h59.3v131.7c0,7-6.8,10.8-10.5,13.2l0.6,1.9H1126l0.6-1.9c-3.7-2.5-10.7-6.2-10.7-13.2V926.9h59.3
	c7,0,8.2,2.4,10.1,5.4l1.9-0.6V870L1185.1,869.6z"/>
<linearGradient id="SVGID_00000131354017703310435970000014523812179678133176_" gradientUnits="userSpaceOnUse" x1="1032.8773" y1="843.543" x2="1148.9503" y2="1044.5873">
	<stop  offset="0.15" style="stop-color:#FFFFFF"/>
	<stop  offset="0.2294" style="stop-color:#F6F6F6"/>
	<stop  offset="0.3589" style="stop-color:#DEDEDE"/>
	<stop  offset="0.5225" style="stop-color:#B6B6B6"/>
	<stop  offset="0.7117" style="stop-color:#80807F"/>
	<stop  offset="0.88" style="stop-color:#4A4A49"/>
</linearGradient>
<path style="fill:url(#SVGID_00000131354017703310435970000014523812179678133176_);" d="M1176.5,882H970.7c-1.3,0-2.6-0.1-3.7-0.4
	v39.2c1.6-0.3,3.4-0.5,5.5-0.5h65.7v139.6c0,3.5-0.7,4.9-2,6.6h74.8c-1.2-1.7-2-3.2-2-6.6V920.2h65.7c2.1,0,3.9,0.2,5.5,0.5v-39.2
	C1179.1,881.9,1177.8,882,1176.5,882z"/>
<path d="M831.7,902.6"/>
<path d="M913.5,912.2"/>
<path d="M844.9,912.2"/>
<g>
	<path class="st9" d="M775.2,1217.7h-42.7v50.2h42.9c16.2,0,23.9-3.1,23.9-18.6v-12.9C799.2,1220.5,791.1,1217.7,775.2,1217.7z
		 M792.6,1249.1c0,11.7-3.6,13.9-15.2,13.9h-38.5v-40.5h35.4c11.3,0,18.3,0,18.3,12.2V1249.1z"/>
	<path class="st9" d="M871.3,1217.7l-31.5,50.2h7.7l7.3-11.6h43.6l7.3,11.6h7l-31.6-50.2H871.3z M857.8,1251.5l18.8-30l18.8,30
		H857.8z"/>
	<polygon class="st9" points="1096.8,1231.3 1100.1,1235.4 1116.7,1222.3 1116.7,1267.9 1123.2,1267.9 1123.2,1217.7 1113.9,1217.7 
			"/>
	<polygon class="st9" points="1270.9,1231.3 1274.1,1235.4 1290.7,1222.3 1290.7,1267.9 1297.2,1267.9 1297.2,1217.7 1288,1217.7 	
		"/>
	<polygon class="st9" points="962.8,1217.7 956.3,1217.7 956.3,1267.9 1006.8,1267.9 1006.8,1262.9 962.8,1262.9 	"/>
	<path class="st9" d="M1206.8,1216.8h-19.9c-11.9,0-20.8,3.2-20.8,13.4v3.7c0.1,11.2,9.4,14,23.5,14h17.1c5,0,12-1.2,15-3.1v4.1
		c0,11.1-2.4,15-14.8,15h-12.3c-12.7,0-20-2.2-20.6-7.4h-5.4c0,4,2.1,6.7,5.1,8.6c6.5,4,21.2,3.9,23.9,3.9h1.5
		c3.2,0,19.6,0.1,24.9-5.6c2.4-2.5,4.1-6.4,4.1-11.9v-17.9C1228,1220.8,1220,1216.8,1206.8,1216.8z M1221.4,1235
		c0,6.6-4.4,7.9-13.4,7.9h-21.2c-5.9,0-14.3-0.5-14.3-8.5v-4.6c0-7.6,9.3-7.9,12.5-7.9h22.8c6.5,0,13.5,1.4,13.5,10.6V1235z"/>
	<path class="st9" d="M1346.9,1257.4c0-3,0.2-6.9,6.5-7.4c6.3-0.5,37-3,38.9-3.2c5.3-0.7,9.9-3.7,9.9-13.3
		c-0.1-5.7-0.3-11.3-6.4-14.2c-6.1-2.9-17.3-3-35.5-2.6c-18.2,0.4-19.6,9-20.4,16.2h6.8c0.5-5.9,0.2-10.5,14.2-10.8
		c12.3-0.3,17.9-0.3,23.9,0c7.4,0.4,10.3,3,10.4,7.4l0.1,4.7c0.1,5.9-2.5,7.1-4.7,7.3c-4.1,0.4-27.3,2.3-40.2,3.5
		c-6,0.5-9.2,4.8-10,9.2c-0.7,4.4-0.5,13.8-0.5,13.8h61.3v-5.1h-54.4C1346.7,1262.8,1346.9,1259.1,1346.9,1257.4z"/>
</g>
<path class="st7" d="M1430.4,887.3c-24.7-10.3-51.5-15.3-82-15.3c-47,0-87.3,12.1-110.4,33.3c-25.2,23.1-30.5,51.3-30.5,71
	c0,31.4,13.3,58.5,37.3,76.5c23.5,17.5,61.3,27.6,103.6,27.6c43.6,0,82.1-10.6,105.7-29.2c22.7-17.8,35.2-44.9,35.2-76.1
	C1489.4,935.5,1467.3,902.7,1430.4,887.3z M1450,1045.9c-24.6,19.3-63.6,27.8-101.6,27.8c-35.5,0-74.7-7.6-99.6-26.3
	c-21.3-15.9-34.6-40.4-34.6-71.1c0-22.8,7.5-47,28.3-66c21.7-19.8,60.7-31.6,105.9-31.6c29.3,0,55,4.6,79.4,14.8
	c34.7,14.5,54.9,45.4,54.9,81.6C1482.7,1005.1,1470.4,1029.9,1450,1045.9z"/>
<linearGradient id="SVGID_00000072261024057829788420000010176946342466325650_" gradientUnits="userSpaceOnUse" x1="1347.847" y1="914.329" x2="1347.847" y2="1022.1586">
	<stop  offset="0" style="stop-color:#EDEDED"/>
	<stop  offset="2.696368e-02" style="stop-color:#D3D3D2"/>
	<stop  offset="6.479070e-02" style="stop-color:#B2B1B1"/>
	<stop  offset="0.1058" style="stop-color:#929291"/>
	<stop  offset="0.1494" style="stop-color:#767575"/>
	<stop  offset="0.1966" style="stop-color:#5D5D5C"/>
	<stop  offset="0.2487" style="stop-color:#494948"/>
	<stop  offset="0.3082" style="stop-color:#3A3A39"/>
	<stop  offset="0.3815" style="stop-color:#2D2D2C"/>
	<stop  offset="0.5102" style="stop-color:#282727"/>
	<stop  offset="0.6553" style="stop-color:#302F2F"/>
	<stop  offset="0.7858" style="stop-color:#3E3E3D"/>
	<stop  offset="0.9103" style="stop-color:#525151"/>
	<stop  offset="1" style="stop-color:#646363"/>
</linearGradient>
<path style="fill:url(#SVGID_00000072261024057829788420000010176946342466325650_);" d="M1347.8,929.5c-26.8,0-48.4,20.8-48.4,46.4
	c0,25.6,21.7,46.4,48.4,46.4c26.8,0,48.4-20.8,48.4-46.4C1396.3,950.3,1374.6,929.5,1347.8,929.5z M1347.8,1020.5
	c-25.7,0-46.5-19.9-46.5-44.5c0-24.6,20.8-44.5,46.5-44.5c25.7,0,46.5,19.9,46.5,44.5C1394.3,1000.5,1373.5,1020.5,1347.8,1020.5z"
	/>
<linearGradient id="SVGID_00000103223625211775676900000002939719857840756393_" gradientUnits="userSpaceOnUse" x1="377.7039" y1="852.4562" x2="622.4105" y2="1097.1627">
	<stop  offset="0" style="stop-color:#FFFFFF"/>
	<stop  offset="8.741915e-03" style="stop-color:#EDEDED"/>
	<stop  offset="3.118089e-02" style="stop-color:#C4C4C4"/>
	<stop  offset="5.642357e-02" style="stop-color:#9E9E9E"/>
	<stop  offset="8.388767e-02" style="stop-color:#7E7E7E"/>
	<stop  offset="0.1142" style="stop-color:#636262"/>
	<stop  offset="0.1485" style="stop-color:#4D4C4C"/>
	<stop  offset="0.1885" style="stop-color:#3C3B3B"/>
	<stop  offset="0.238" style="stop-color:#313030"/>
	<stop  offset="0.3074" style="stop-color:#2A2929"/>
	<stop  offset="0.5" style="stop-color:#282727"/>
	<stop  offset="0.6378" style="stop-color:#313130"/>
	<stop  offset="0.7806" style="stop-color:#41403F"/>
	<stop  offset="0.9252" style="stop-color:#565655"/>
	<stop  offset="1" style="stop-color:#646363"/>
</linearGradient>
<path style="fill:url(#SVGID_00000103223625211775676900000002939719857840756393_);" d="M624.1,857.3h-7.5
	c-2,4.5-8.3,11.3-17.2,11.3h-238v7.8c0,0,11.9,6.5,11.9,17.8h0l0,158.1c0,9.5-4.1,15.6-10.6,19.2v7.4h236.6c11.6,0,17,7.8,19.8,13.2
	h8.1v-81.2h-6.9c-2.5,5.7-8.9,9.7-15.2,9.7H469.7V1000h97c12.3,0,13.7,6.1,16.5,11.5h12v-76.2h-13.6c-2.1,4-5.6,9.2-12.7,9.2h-99
	v-17.8c0,0,126.6,0,131.6,0s13.2,4.3,15.2,12.6l7.5-0.2V857.3z"/>
<path class="st7" d="M618.5,865v66h-1.8c-1.7-4.5-6.1-10.2-11.6-10.2c-3.3,0-140.8,0-140.8,0v30h113.5c3.9,0,7.2-2.4,10.1-7.8h1.9
	v59.4h-1.9c-2.8-5.5-6.2-7.8-10.1-7.8H464.4v32.5h143.3c7.7,0,13.9-7.6,13.9-7.6v67.6c0,0-6.1-13.4-13.9-13.4H369.6
	c4.4-2.4,10.3-7.1,10.3-10.9V886.4c0-3.8-5.9-8.7-10.3-11.1c0,0,233.3,0,236.9,0S614.7,872,618.5,865z"/>
<linearGradient id="SVGID_00000130638488633869475610000014477576935659431103_" gradientUnits="userSpaceOnUse" x1="430.4927" y1="855.9153" x2="568.7813" y2="1095.4382">
	<stop  offset="0.25" style="stop-color:#F2F2F2"/>
	<stop  offset="0.3223" style="stop-color:#E9E9E9"/>
	<stop  offset="0.4404" style="stop-color:#D1D1D1"/>
	<stop  offset="0.5894" style="stop-color:#A9A9A9"/>
	<stop  offset="0.7619" style="stop-color:#737373"/>
	<stop  offset="0.88" style="stop-color:#4A4A49"/>
</linearGradient>
<path style="fill:url(#SVGID_00000130638488633869475610000014477576935659431103_);" d="M521.2,1066.7H606c3.3,0,6.9,1,8.7,2.2v-36
	c-1.8,1.2-5.4,1.2-8.7,1.2H457.6v-46.6h117.5c3.3,0,6-0.1,7.9,0.9v-31.9c0,0-2.7,1.3-4.7,1.3s-120.8,0-120.8,0v-43.6
	c0,0,144.8,0,147.8,0s6.3,1.4,6.3,1.4l0.2-34.7c0,0-1.7,1-3.8,1s-222.7,0-222.7,0c0.4,0.8,1.3,3.4,1.3,5.4s0,174.4,0,174.4
	c0,2-0.9,4.1-1.3,4.9H521.2"/>
<linearGradient id="SVGID_00000160176701453484743600000004800512620941021071_" gradientUnits="userSpaceOnUse" x1="1762.8923" y1="790.7092" x2="2094.9568" y2="1122.7736">
	<stop  offset="0.1527" style="stop-color:#FFFFFF"/>
	<stop  offset="0.2133" style="stop-color:#CACACA"/>
	<stop  offset="0.2871" style="stop-color:#919191"/>
	<stop  offset="0.3553" style="stop-color:#646363"/>
	<stop  offset="0.4157" style="stop-color:#434242"/>
	<stop  offset="0.466" style="stop-color:#2F2E2E"/>
	<stop  offset="0.5" style="stop-color:#282727"/>
	<stop  offset="0.6378" style="stop-color:#313130"/>
	<stop  offset="0.7806" style="stop-color:#41403F"/>
	<stop  offset="0.9252" style="stop-color:#565655"/>
	<stop  offset="1" style="stop-color:#646363"/>
</linearGradient>
<path style="fill:url(#SVGID_00000160176701453484743600000004800512620941021071_);" d="M2071.1,857.3h-7.5
	c-2,4.5-8.3,11.3-17.2,11.3h-238v7.8c0,0,11.9,6.5,11.9,17.8h0l0,158.1c0,9.5-4.1,15.6-10.6,19.2v7.4h236.6c11.6,0,17,7.8,19.8,13.2
	h8.1v-81.2h-6.9c-2.5,5.7-8.9,9.7-15.2,9.7h-135.4V1000h97c12.3,0,13.7,6.1,16.5,11.5h12v-76.2h-13.6c-2.1,4-5.6,9.2-12.7,9.2h-99
	v-17.8c0,0,126.6,0,131.6,0c5,0,13.2,4.3,15.2,12.6l7.5-0.2V857.3z"/>
<path class="st7" d="M2065.4,865v66h-1.8c-1.7-4.5-6.1-10.2-11.6-10.2c-3.3,0-140.8,0-140.8,0v30h113.5c3.9,0,7.2-2.4,10.1-7.8h1.9
	v59.4h-1.9c-2.8-5.5-6.2-7.8-10.1-7.8h-113.5v32.5h143.3c7.7,0,13.9-7.6,13.9-7.6v67.6c0,0-6.1-13.4-13.9-13.4h-238.1
	c4.4-2.4,10.3-7.1,10.3-10.9V886.4c0-3.8-5.9-8.7-10.3-11.1c0,0,233.3,0,236.9,0S2061.7,872,2065.4,865z"/>
<linearGradient id="SVGID_00000113321588634754392940000000077305957839429038_" gradientUnits="userSpaceOnUse" x1="1842.2365" y1="870.5685" x2="2058.9099" y2="1087.2418">
	<stop  offset="0.25" style="stop-color:#F2F2F2"/>
	<stop  offset="0.3223" style="stop-color:#E9E9E9"/>
	<stop  offset="0.4404" style="stop-color:#D1D1D1"/>
	<stop  offset="0.5894" style="stop-color:#A9A9A9"/>
	<stop  offset="0.7619" style="stop-color:#737373"/>
	<stop  offset="0.88" style="stop-color:#4A4A49"/>
</linearGradient>
<path style="fill:url(#SVGID_00000113321588634754392940000000077305957839429038_);" d="M1968.1,1066.7h84.9c3.3,0,6.9,1,8.7,2.2
	v-36c-1.8,1.2-5.4,1.2-8.7,1.2h-148.5v-46.6H2022c3.3,0,6-0.1,7.9,0.9v-31.9c0,0-2.7,1.3-4.7,1.3s-120.8,0-120.8,0v-43.6
	c0,0,144.8,0,147.8,0s6.3,1.4,6.3,1.4l0.2-34.7c0,0-1.7,1-3.8,1s-222.7,0-222.7,0c0.4,0.8,1.3,3.4,1.3,5.4s0,174.4,0,174.4
	c0,2-0.9,4.1-1.3,4.9H1968.1"/>
<linearGradient id="SVGID_00000148657008747643807090000002429582095789061567_" gradientUnits="userSpaceOnUse" x1="1527.2578" y1="848.6699" x2="1778.418" y2="1099.8301">
	<stop  offset="4.926110e-03" style="stop-color:#EDEDED"/>
	<stop  offset="1.392355e-02" style="stop-color:#DFDFDF"/>
	<stop  offset="3.614160e-02" style="stop-color:#BFBFBF"/>
	<stop  offset="6.109300e-02" style="stop-color:#A1A0A0"/>
	<stop  offset="8.827119e-02" style="stop-color:#858584"/>
	<stop  offset="0.1183" style="stop-color:#6C6B6B"/>
	<stop  offset="0.1522" style="stop-color:#575656"/>
	<stop  offset="0.1918" style="stop-color:#454444"/>
	<stop  offset="0.2407" style="stop-color:#383837"/>
	<stop  offset="0.3094" style="stop-color:#2C2C2B"/>
	<stop  offset="0.5" style="stop-color:#282727"/>
	<stop  offset="0.6378" style="stop-color:#313130"/>
	<stop  offset="0.7806" style="stop-color:#41403F"/>
	<stop  offset="0.9252" style="stop-color:#565655"/>
	<stop  offset="1" style="stop-color:#646363"/>
</linearGradient>
<path style="fill:url(#SVGID_00000148657008747643807090000002429582095789061567_);" d="M1678.1,1079h121.1v-5.6
	c-5.3-1.8-11.3-4.5-11.3-15.5c0-11.6,0.2-165.7,0.2-169.8c0-4.2,4.5-9.6,8.6-12.3v-7.3h-112.6v7c5,2.8,9.3,6.4,9.3,14.5
	c0,0,0,55.9,0,58.8c0,4.4-4.7,7.6-9.1,2.9c-5.5-5.9-67.4-83.2-67.4-83.2h-109.7v10c0,0,10.1,3,10.1,14.3l0,162.3
	c0,9.5-2.6,13.6-9.2,17.4v6.4h112.5v-5.1c-2.2-0.7-9-4.9-9-14.3c0-10.6,0-45.1,0-49.3c0-6.6,6.9-6.8,10.7-1.9
	C1629.5,1017.4,1678.1,1079,1678.1,1079z"/>
<path class="st7" d="M1514.7,1073.7c4.4-2.4,9.5-7.1,9.5-10.9V885.5c0-3-1.7-6.2-7.4-8.2l0.4-1.8h97.5l85.3,104.5c0,0,0-93.7,0-96
	c0-5.7-9-8.5-9-8.5h101.3c-5.7,3.3-9.5,5.9-9.5,12.1s0,170.7,0,177.1c0,5.5,6.9,6.8,6.9,6.8l-0.4,2.4h-106.4l-76.6-95.4
	c0,0,0,79.8,0,85s3.8,8.5,6.3,10.4H1514.7z"/>
<linearGradient id="SVGID_00000105426469094881737880000002621265594392679863_" gradientUnits="userSpaceOnUse" x1="157.9638" y1="935.7446" x2="246.9609" y2="935.7446">
	<stop  offset="0" style="stop-color:#EDEDED"/>
	<stop  offset="9.272341e-03" style="stop-color:#DFDFDF"/>
	<stop  offset="3.216922e-02" style="stop-color:#BFBFBF"/>
	<stop  offset="5.788298e-02" style="stop-color:#A1A0A0"/>
	<stop  offset="8.589156e-02" style="stop-color:#858584"/>
	<stop  offset="0.1168" style="stop-color:#6C6B6B"/>
	<stop  offset="0.1518" style="stop-color:#575656"/>
	<stop  offset="0.1925" style="stop-color:#454444"/>
	<stop  offset="0.243" style="stop-color:#383837"/>
	<stop  offset="0.3138" style="stop-color:#2C2C2B"/>
	<stop  offset="0.5102" style="stop-color:#282727"/>
	<stop  offset="0.6553" style="stop-color:#302F2F"/>
	<stop  offset="0.7858" style="stop-color:#3E3E3D"/>
	<stop  offset="0.9103" style="stop-color:#525151"/>
	<stop  offset="1" style="stop-color:#646363"/>
</linearGradient>
<path style="fill:url(#SVGID_00000105426469094881737880000002621265594392679863_);" d="M245.4,925.6c-1.9-1.4-4.3-2.2-7.1-2.2H160
	v24.6h76.6c9.1,0,12.4-6.9,12.4-12.7C249,931.1,247.7,927.8,245.4,925.6z M234.8,942.1L234.8,942.1l-68.9,0v-12.7h68.8c0,0,0,0,0,0
	c3.5,0,6.3,2.8,6.3,6.3C241.1,939.3,238.3,942.1,234.8,942.1z"/>
<linearGradient id="SVGID_00000124858079964994635550000016248793266720693659_" gradientUnits="userSpaceOnUse" x1="156.7847" y1="1010.7144" x2="254.2041" y2="1010.7144">
	<stop  offset="0" style="stop-color:#EDEDED"/>
	<stop  offset="9.272341e-03" style="stop-color:#DFDFDF"/>
	<stop  offset="3.216922e-02" style="stop-color:#BFBFBF"/>
	<stop  offset="5.788298e-02" style="stop-color:#A1A0A0"/>
	<stop  offset="8.589156e-02" style="stop-color:#858584"/>
	<stop  offset="0.1168" style="stop-color:#6C6B6B"/>
	<stop  offset="0.1518" style="stop-color:#575656"/>
	<stop  offset="0.1925" style="stop-color:#454444"/>
	<stop  offset="0.243" style="stop-color:#383837"/>
	<stop  offset="0.3138" style="stop-color:#2C2C2B"/>
	<stop  offset="0.5102" style="stop-color:#282727"/>
	<stop  offset="0.6553" style="stop-color:#302F2F"/>
	<stop  offset="0.7858" style="stop-color:#3E3E3D"/>
	<stop  offset="0.9103" style="stop-color:#525151"/>
	<stop  offset="1" style="stop-color:#646363"/>
</linearGradient>
<path style="fill:url(#SVGID_00000124858079964994635550000016248793266720693659_);" d="M239.1,994.5h-79.9v32.4h78.7
	c9.9,0,18.7-7.3,18.7-16.2C256.7,1001.8,248.4,994.5,239.1,994.5z M236.1,1021.2h-70.9v-20.7h70.3c8.6,0,15.5,3.9,15.5,10.7
	C250.9,1017.2,243.2,1021.2,236.1,1021.2z"/>
<g>
	<path class="st9" d="M730.2,1173.9H57.8v-35.2h672.4V1173.9z M58.8,1172.9h670.4v-33.2H58.8V1172.9z"/>
</g>
<g>
	<path class="st9" d="M1401.5,1173.9H729.2v-35.2h672.4V1173.9z M730.2,1172.9h670.4v-33.2H730.2V1172.9z"/>
</g>
<g>
	<path class="st9" d="M2072.9,1173.9h-672.4v-35.2h672.4V1173.9z M1401.5,1172.9h670.4v-33.2h-670.4V1172.9z"/>
</g>
<linearGradient id="SVGID_00000125576186485437548910000011554489419592724608_" gradientUnits="userSpaceOnUse" x1="1545.3955" y1="866.3964" x2="1761.0957" y2="1082.0967">
	<stop  offset="0.25" style="stop-color:#F2F2F2"/>
	<stop  offset="0.3223" style="stop-color:#E9E9E9"/>
	<stop  offset="0.4404" style="stop-color:#D1D1D1"/>
	<stop  offset="0.5894" style="stop-color:#A9A9A9"/>
	<stop  offset="0.7619" style="stop-color:#737373"/>
	<stop  offset="0.88" style="stop-color:#4A4A49"/>
</linearGradient>
<path style="fill:url(#SVGID_00000125576186485437548910000011554489419592724608_);" d="M1608,969l77.3,97.7h91.2
	c0,0-0.6-0.5-0.6-1.4c0-1,0-179.4,0-180.9c0-1.5,1.2-2.2,1.2-2.2h-70.8c0,0,0.7,1.1,0.7,2.5c0,1.4,0,97.7,0,102.8
	c0,5.1-4.5,7.2-7.2,4l-88.5-109.3h-81.8c1.2,1.5,1.3,4.9,1.3,7.3c0,2,0,172.4,0,172.4c0,2-0.9,4.1-1.3,4.9h70.5
	c-1.2,0-0.8-3.8-0.8-5.4c0-1.7,0-85.6,0-89.6C1599.3,966.1,1603.6,963.2,1608,969z"/>
<linearGradient id="SVGID_00000016036434712091475560000000761044594045278863_" gradientUnits="userSpaceOnUse" x1="1292.4141" y1="879.1476" x2="1404.4615" y2="1073.2196">
	<stop  offset="0.25" style="stop-color:#F2F2F2"/>
	<stop  offset="0.3223" style="stop-color:#E9E9E9"/>
	<stop  offset="0.4404" style="stop-color:#D1D1D1"/>
	<stop  offset="0.5894" style="stop-color:#A9A9A9"/>
	<stop  offset="0.7619" style="stop-color:#737373"/>
	<stop  offset="0.88" style="stop-color:#4A4A49"/>
</linearGradient>
<path style="fill:url(#SVGID_00000016036434712091475560000000761044594045278863_);" d="M1427.8,893.4
	c-24.4-10.2-50.1-14.8-79.4-14.8c-45.3,0-84.2,11.7-105.9,31.6c-20.9,19.1-28.3,43.3-28.3,66c0,30.7,13.3,55.2,34.6,71.1
	c25,18.6,64.2,26.3,99.6,26.3c38,0,77-8.4,101.6-27.8c20.3-16,32.6-40.7,32.6-70.9C1482.7,938.9,1462.5,907.9,1427.8,893.4z
	 M1348.4,1034.2c-33,0-59.8-26-59.8-58c0-32,26.8-58,59.8-58c33,0,59.8,26,59.8,58C1408.2,1008.2,1381.5,1034.2,1348.4,1034.2z"/>
<path class="st7" d="M1348.4,918.1c-33,0-59.8,26-59.8,58c0,32,26.8,58,59.8,58c33,0,59.8-26,59.8-58
	C1408.2,944.1,1381.5,918.1,1348.4,918.1z M1348.4,1028.8c-30.2,0-54.7-23.5-54.7-52.4c0-29,24.5-52.4,54.7-52.4
	c30.2,0,54.7,23.5,54.7,52.4C1403.2,1005.3,1378.7,1028.8,1348.4,1028.8z"/>
<path d="M929.2,1060.2c-4.9-7.3-29.2-43.9-34.9-53c-2.9-4.7-0.9-8.3,4.7-11.6c23.3-13.7,32.9-36.5,32.9-56.1
	c0-40.7-29.2-64.3-54.5-64.3c-6.8,0-217.5,0-217.5,0l-0.3,2c4.5,1.5,10.5,5.7,10.5,11.2v170.2c0,7-6.8,10.8-10.5,13.2l0.6,1.9H762
	l0.6-1.9c-3.7-2.5-10.7-6.2-10.7-13.2v-62.2c6,0,28.9,0,34.3,0c4.4,0,6.2,2.7,8.1,5.3c1.9,2.6,31.3,47.9,36.4,55.9
	c3.6,5.8,1.2,12.2-2.4,15.8h115.2v-2.3C938.2,1070.1,933.3,1066.3,929.2,1060.2z M833.6,949.3h-81.8v-0.8v-24.6h82.5
	c2.8,0,5.2,0.8,7.1,2.2c2.9,2.2,4.5,5.8,4.5,10.6C846,942.4,842.7,949.3,833.6,949.3z"/>
<linearGradient id="SVGID_00000120531927028460378120000007943408627516483261_" gradientUnits="userSpaceOnUse" x1="720.3487" y1="856.1598" x2="862.7104" y2="1102.7375">
	<stop  offset="0.25" style="stop-color:#F2F2F2"/>
	<stop  offset="0.3223" style="stop-color:#E9E9E9"/>
	<stop  offset="0.4404" style="stop-color:#D1D1D1"/>
	<stop  offset="0.5894" style="stop-color:#A9A9A9"/>
	<stop  offset="0.7619" style="stop-color:#737373"/>
	<stop  offset="0.88" style="stop-color:#4A4A49"/>
</linearGradient>
<path style="fill:url(#SVGID_00000120531927028460378120000007943408627516483261_);" d="M925.1,1066.7c0,0-32.7-49.8-38.3-58
	c-5.6-8.2-4.4-14.2,3.4-16.9c12-4.2,34.6-19.9,34.6-52.2c0-37-27-57.4-48.2-57.4c-9.8,0-201.2,0-201.2,0s1.4,3,1.4,5.5v172.4
	c0,3.5-0.1,4.9-1.4,6.6h71.5c-1.2-1.7-1.5-3.2-1.5-6.6v-70.6c0,0,37.8,0,41,0c3.2,0,8.7,0.4,13.2,7.4c0,0,32.2,49.1,35.6,54.6
	c3.4,5.5,5.7,10.5,4.6,15.3H925.1z M833.6,954.8h-87.3v-36.5h88c10.1,0,17.2,7.2,17.2,18.2C851.5,946.6,844.9,954.8,833.6,954.8z"/>
<linearGradient id="SVGID_00000023260857681558433970000004762016166723018377_" gradientUnits="userSpaceOnUse" x1="741.3486" y1="936.1381" x2="861.0289" y2="936.1381">
	<stop  offset="0" style="stop-color:#EDEDED"/>
	<stop  offset="2.696368e-02" style="stop-color:#D3D3D2"/>
	<stop  offset="6.479070e-02" style="stop-color:#B2B1B1"/>
	<stop  offset="0.1058" style="stop-color:#929291"/>
	<stop  offset="0.1494" style="stop-color:#767575"/>
	<stop  offset="0.1966" style="stop-color:#5D5D5C"/>
	<stop  offset="0.2487" style="stop-color:#494948"/>
	<stop  offset="0.3082" style="stop-color:#3A3A39"/>
	<stop  offset="0.3815" style="stop-color:#2D2D2C"/>
	<stop  offset="0.5102" style="stop-color:#282727"/>
	<stop  offset="0.6553" style="stop-color:#302F2F"/>
	<stop  offset="0.7858" style="stop-color:#3E3E3D"/>
	<stop  offset="0.9103" style="stop-color:#525151"/>
	<stop  offset="1" style="stop-color:#646363"/>
</linearGradient>
<path style="fill:url(#SVGID_00000023260857681558433970000004762016166723018377_);" d="M841.4,926c-1.9-1.4-4.3-2.2-7.1-2.2h-82.5
	v24.6h80.8c9.1,0,12.4-6.9,12.4-12.7C845,931.5,843.7,928.2,841.4,926z M831.7,942.5L831.7,942.5l-74,0v-12.7h73.9c0,0,0,0,0,0
	c3.5,0,6.3,2.8,6.3,6.3C838,939.7,835.2,942.5,831.7,942.5z"/>
<linearGradient id="SVGID_00000137841034042080938410000004155447169685824898_" gradientUnits="userSpaceOnUse" x1="748.3563" y1="936.7333" x2="841.793" y2="935.5721">
	<stop  offset="0" style="stop-color:#646363"/>
	<stop  offset="0.5" style="stop-color:#282727"/>
	<stop  offset="0.661" style="stop-color:#464645"/>
	<stop  offset="0.8664" style="stop-color:#5C5C5B"/>
	<stop  offset="1" style="stop-color:#646363"/>
</linearGradient>
<path style="fill:url(#SVGID_00000137841034042080938410000004155447169685824898_);" d="M831.7,929.8
	C831.7,929.8,831.7,929.8,831.7,929.8l-74,0v12.7h74v0c3.5,0,6.3-2.8,6.3-6.3C838,932.7,835.2,929.8,831.7,929.8z M831.1,940.5
	L831.1,940.5l-71.4,0v-8.7c0,0,71.4,0,71.4,0c2.4,0,4.3,2,4.3,4.3C835.4,938.5,833.5,940.5,831.1,940.5z"/>
<linearGradient id="SVGID_00000170959680025842301800000013842855584300349324_" gradientUnits="userSpaceOnUse" x1="751.7949" y1="937.6387" x2="845.9829" y2="937.6387">
	<stop  offset="0" style="stop-color:#646363"/>
	<stop  offset="0.5" style="stop-color:#282727"/>
	<stop  offset="0.661" style="stop-color:#464645"/>
	<stop  offset="0.8664" style="stop-color:#5C5C5B"/>
	<stop  offset="1" style="stop-color:#646363"/>
</linearGradient>
<path style="fill:url(#SVGID_00000170959680025842301800000013842855584300349324_);" d="M841.4,926c2.3,2.2,3.6,5.5,3.6,9.7
	c0,5.9-3.2,12.7-12.4,12.7h-80.8v0.8h81.8c9.1,0,12.4-6.9,12.4-12.7C846,931.8,844.3,928.1,841.4,926z"/>
<linearGradient id="SVGID_00000171717466976878922760000015205943179594224787_" gradientUnits="userSpaceOnUse" x1="1286.7245" y1="976.332" x2="1401.4989" y2="976.332">
	<stop  offset="0" style="stop-color:#EDEDED"/>
	<stop  offset="2.696368e-02" style="stop-color:#D3D3D2"/>
	<stop  offset="6.479070e-02" style="stop-color:#B2B1B1"/>
	<stop  offset="0.1058" style="stop-color:#929291"/>
	<stop  offset="0.1494" style="stop-color:#767575"/>
	<stop  offset="0.1966" style="stop-color:#5D5D5C"/>
	<stop  offset="0.2487" style="stop-color:#494948"/>
	<stop  offset="0.3082" style="stop-color:#3A3A39"/>
	<stop  offset="0.3815" style="stop-color:#2D2D2C"/>
	<stop  offset="0.5102" style="stop-color:#282727"/>
	<stop  offset="0.6553" style="stop-color:#302F2F"/>
	<stop  offset="0.7858" style="stop-color:#3E3E3D"/>
	<stop  offset="0.9103" style="stop-color:#525151"/>
	<stop  offset="1" style="stop-color:#646363"/>
</linearGradient>
<path style="fill:url(#SVGID_00000171717466976878922760000015205943179594224787_);" d="M1348.4,923.9c-30.2,0-54.7,23.5-54.7,52.4
	c0,29,24.5,52.4,54.7,52.4c30.2,0,54.7-23.5,54.7-52.4C1403.2,947.4,1378.7,923.9,1348.4,923.9z M1347.8,1022.3
	c-26.8,0-48.4-20.8-48.4-46.4c0-25.6,21.7-46.4,48.4-46.4c26.8,0,48.4,20.8,48.4,46.4C1396.3,1001.6,1374.6,1022.3,1347.8,1022.3z"
	/>
<linearGradient id="SVGID_00000101821217681344867730000010953715709851243405_" gradientUnits="userSpaceOnUse" x1="1286.7245" y1="980.6562" x2="1401.498" y2="980.6562">
	<stop  offset="0" style="stop-color:#646363"/>
	<stop  offset="0.5" style="stop-color:#282727"/>
	<stop  offset="0.661" style="stop-color:#464645"/>
	<stop  offset="0.8664" style="stop-color:#5C5C5B"/>
	<stop  offset="1" style="stop-color:#646363"/>
</linearGradient>
<path style="fill:url(#SVGID_00000101821217681344867730000010953715709851243405_);" d="M1378.5,932.6
	c14.4,9.4,23.9,25.3,23.9,43.3c0,29-24.5,52.4-54.7,52.4c-11.1,0-21.5-3.2-30.1-8.6c8.8,5.8,19.4,9.1,30.8,9.1
	c30.2,0,54.7-23.5,54.7-52.4C1403.2,958,1393.4,941.9,1378.5,932.6z"/>
<linearGradient id="SVGID_00000026156070899918837290000008625765139116014993_" gradientUnits="userSpaceOnUse" x1="165.9458" y1="935.7627" x2="241.1479" y2="935.7627">
	<stop  offset="0" style="stop-color:#646363"/>
	<stop  offset="0.5" style="stop-color:#282727"/>
	<stop  offset="0.661" style="stop-color:#464645"/>
	<stop  offset="0.8664" style="stop-color:#5C5C5B"/>
	<stop  offset="1" style="stop-color:#646363"/>
</linearGradient>
<path style="fill:url(#SVGID_00000026156070899918837290000008625765139116014993_);" d="M234.8,929.4
	C234.8,929.4,234.8,929.4,234.8,929.4l-68.9,0v12.7h68.9v0c3.5,0,6.3-2.8,6.3-6.3C241.1,932.3,238.3,929.4,234.8,929.4z
	 M234.2,940.1L234.2,940.1l-66.3,0v-8.7c0,0,66.3,0,66.3,0c2.4,0,4.3,2,4.3,4.3C238.5,938.2,236.6,940.1,234.2,940.1z"/>
<linearGradient id="SVGID_00000114778091704755932110000017070755880964359851_" gradientUnits="userSpaceOnUse" x1="160.0131" y1="937.2451" x2="249.9907" y2="937.2451">
	<stop  offset="0" style="stop-color:#646363"/>
	<stop  offset="0.5" style="stop-color:#282727"/>
	<stop  offset="0.661" style="stop-color:#464645"/>
	<stop  offset="0.8664" style="stop-color:#5C5C5B"/>
	<stop  offset="1" style="stop-color:#646363"/>
</linearGradient>
<path style="fill:url(#SVGID_00000114778091704755932110000017070755880964359851_);" d="M245.4,925.6c2.3,2.2,3.6,5.5,3.6,9.7
	c0,5.9-3.2,12.7-12.4,12.7H160v0.8h77.6c9.1,0,12.4-6.9,12.4-12.7C250,931.4,248.3,927.7,245.4,925.6z"/>
<linearGradient id="SVGID_00000161625895227626938680000002512351673216559263_" gradientUnits="userSpaceOnUse" x1="165.1767" y1="1010.8105" x2="250.9321" y2="1010.8105">
	<stop  offset="0" style="stop-color:#646363"/>
	<stop  offset="0.5" style="stop-color:#282727"/>
	<stop  offset="0.661" style="stop-color:#464645"/>
	<stop  offset="0.8664" style="stop-color:#5C5C5B"/>
	<stop  offset="1" style="stop-color:#646363"/>
</linearGradient>
<path style="fill:url(#SVGID_00000161625895227626938680000002512351673216559263_);" d="M235.5,1000.5h-70.3v20.7h70.9
	c7.1,0,14.8-4,14.8-10C250.9,1004.3,244.1,1000.5,235.5,1000.5z M235.7,1018.9h-68.6v-16.5h68.4c5.4,0,13.1,2.2,13.1,8.7
	C248.7,1015.2,242.8,1018.9,235.7,1018.9z"/>
<linearGradient id="SVGID_00000115476477183051820400000000509753007845188997_" gradientUnits="userSpaceOnUse" x1="159.2441" y1="1011.1841" x2="257.2866" y2="1011.1841">
	<stop  offset="0" style="stop-color:#646363"/>
	<stop  offset="0.5" style="stop-color:#282727"/>
	<stop  offset="0.661" style="stop-color:#464645"/>
	<stop  offset="0.8664" style="stop-color:#5C5C5B"/>
	<stop  offset="1" style="stop-color:#646363"/>
</linearGradient>
<path style="fill:url(#SVGID_00000115476477183051820400000000509753007845188997_);" d="M239.7,994.5h-0.6
	c9.3,0,17.6,7.3,17.6,16.2c0,9-8.8,16.2-18.7,16.2h-78.7v0.9h79.3c9.9,0,18.7-7.5,18.7-16.7C257.3,1002,249,994.5,239.7,994.5z"/>
<linearGradient id="SVGID_00000106126592156336700140000017221788163928428693_" gradientUnits="userSpaceOnUse" x1="129.4358" y1="855.99" x2="262.7956" y2="1086.9761">
	<stop  offset="0.25" style="stop-color:#F2F2F2"/>
	<stop  offset="0.3223" style="stop-color:#E9E9E9"/>
	<stop  offset="0.4404" style="stop-color:#D1D1D1"/>
	<stop  offset="0.5894" style="stop-color:#A9A9A9"/>
	<stop  offset="0.7619" style="stop-color:#737373"/>
	<stop  offset="0.88" style="stop-color:#4A4A49"/>
</linearGradient>
<path style="fill:url(#SVGID_00000106126592156336700140000017221788163928428693_);" d="M311.5,966.5c6-3.6,18.8-12.1,18.9-38.1
	c0.1-22.7-16.9-46.4-38.4-46.4c-2.1,0-207.6,0-207.6,0s0.8,1.8,0.8,3.2v174.7c0,3.6,0.2,5.4-1,7h199c27,0,56.7-23.1,56.7-53.6
	C339.8,987.2,321.9,972.5,311.5,966.5z M154.5,917.9h83.8c10.1,0,17.2,7.2,17.2,18.2c0,10.1-6.6,18.2-17.9,18.2h-83.1V917.9z
	 M239.1,1033.4h-85.4V989h85.8c12.8,0,22.8,9.3,22.8,22.2C262.4,1025.3,250,1033.4,239.1,1033.4z"/>
<linearGradient id="SVGID_00000154403204799474405550000015648783686574530984_" gradientUnits="userSpaceOnUse" x1="1009.1008" y1="578.2678" x2="1290.1689" y2="553.6776">
	<stop  offset="0.164" style="stop-color:#E6E6E6"/>
	<stop  offset="0.4134" style="stop-color:#9D9D9D"/>
	<stop  offset="0.7811" style="stop-color:#363636"/>
	<stop  offset="0.9458" style="stop-color:#0D0D0D"/>
</linearGradient>
<path style="opacity:0.7;fill:url(#SVGID_00000154403204799474405550000015648783686574530984_);" d="M1254.8,355.9
	c-13.2,5.6-167,70.3-172,72.1c-2.3,0.8-3.6,1.5-4.8,1.8v63.9c1.2,0.1,2.4-0.1,3.6-0.6c2-0.8,59.7-23.3,75.1-29.3
	c11.6-4.5,19.4,7,18.3,15.6c-0.5,4-18.8,166.4-20.3,179.7c-0.8,6.7-0.9,12.9-9.4,16.6c-10.3,4.5-45.1,19.6-60.8,26.4
	c-2.1,0.8-4.2,1.5-6.4,1.5v69.6c0.8-0.2,1.6-0.5,2.7-0.8l114.9-45.1c0.7-0.4,1.4-0.7,1.6-2.2l58.3-368.3
	C1255.8,355.9,1255.4,355.6,1254.8,355.9z"/>
<linearGradient id="SVGID_00000055665747206724896130000009972209650747174808_" gradientUnits="userSpaceOnUse" x1="718.6305" y1="99.932" x2="1142.2419" y2="761.0429">
	<stop  offset="0" style="stop-color:#FFFFFF"/>
	<stop  offset="0.7696" style="stop-color:#F6F6F6"/>
	<stop  offset="1" style="stop-color:#F2F2F2"/>
</linearGradient>
<path style="fill:url(#SVGID_00000055665747206724896130000009972209650747174808_);" d="M1071.1,702.1
	c-14.4-6.3-50.9-22.3-60.3-26.5c-8.5-3.8-8.6-9.9-9.4-16.6c-1.5-13.3-19.8-175.7-20.3-179.7c-1.1-8.6,6.7-20.1,18.3-15.6
	c14.7,5.6,71.4,27.8,74.6,28.9c1.6,0.6,2.9,0.9,4.1,1v-63.9c-1.6,0.3-3.1,0-6.7-1.5c-6.2-2.7-87.1-37.4-94.2-40.5
	c-7.1-3-7.3-6.1-7.7-10.5c-0.4-4.4-28.3-246.9-28.9-253.2c-0.6-6.3-3.3-10-10.4-12.2c-7.1-2.2-146.2-44.1-148.9-45.1
	c-2.7-1-3.2-0.6-2.7,2.7c0.5,3.3,8,61.2,8.7,64.8c0.6,3.7,0.9,4.1,2.9,5s69,26.6,73.6,28.4c4.6,1.8,5.1,3.4,5.8,8.2
	c0,0,69.5,442.4,72.6,461.7c0.5,3.2-2.4,7.2-7.4,5.1l-52.4-22.8c-0.6-0.3-1.1,0.1-0.9,1s14.7,78.7,15.2,81.7s1.8,3.8,4.5,4.8
	c0,0,164.2,62.4,171.5,65.1c2.6,0.9,3.9,1,5.3,0.7v-69.6C1075.9,703.6,1073.7,703.2,1071.1,702.1z"/>
<path class="st33" d="M1145.7,672.5c5.9-2.5,5.2-6.4,5.9-13.4c0,0,19.6-173.3,20.3-178.4c1.4-11.1-7.3-16.8-12.6-14.7
	c-10,3.9-72.7,27.9-78.1,29.9c-0.8,0.3-1.8,0.6-3.2,0.7v5.6c0.9,0,1.8-0.2,3.1-0.7c2.5-1,77-29.8,79.1-30.4c2.1-0.6,7.1,0.4,6.6,7.4
	s-20.5,182.4-21.1,185.6s-2.1,4.1-4.9,5.6s-55.2,24.5-58.8,26c-1.7,0.7-2.9,1.1-4.1,1.1v4c2,0,3.9-0.5,6.2-1.4
	C1084.2,699.4,1138.3,675.6,1145.7,672.5z"/>
<path class="st33" d="M1261.4,338.8c-3.3,1.3-166.8,67.3-181,73c-0.9,0.4-1.7,0.6-2.3,0.8v8.1c0.5-0.1,1-0.3,1.7-0.6
	c1.8-0.7,176.4-73,182.4-75.5c1.7-0.7,2.4-0.3,2.1,1.9c-0.4,2.5-59.7,377.9-60.2,381.4s-2.7,4.9-4.7,5.7s-111.7,43.8-117.9,46.1
	c-1.1,0.4-2.1,0.8-3.3,1v4.1c0.9-0.2,1.8-0.6,2.9-1c0,0,120.6-47.4,122.9-48.4c2.3-1.1,2.8-2.4,3.2-4.6
	c0.4-2.2,60.2-380.5,61.1-386.2C1268.9,340.2,1264.7,337.5,1261.4,338.8z"/>
<path class="st34" d="M1145.3,675.6c8.5-3.7,8.7-9.9,9.4-16.6c1.5-13.3,19.8-175.7,20.3-179.7c1.1-8.6-6.7-20.1-18.3-15.6
	c-15.4,6-73,28.5-75.1,29.3c-1.2,0.5-2.4,0.7-3.6,0.6v2.9c1.3-0.1,2.4-0.4,3.2-0.7c5.4-2.1,68.1-26.1,78.1-29.9
	c5.3-2.1,14,3.7,12.6,14.7c-0.6,5.1-20.3,178.4-20.3,178.4c-0.8,7-0.1,10.9-5.9,13.4c-7.4,3.2-61.5,27-61.5,27
	c-2.2,0.9-4.2,1.4-6.2,1.4v2.7c2.2-0.1,4.3-0.7,6.4-1.5C1100.2,695.2,1135.1,680.1,1145.3,675.6z"/>
<path class="st35" d="M1262.1,344.7c-5.9,2.5-180.5,74.7-182.4,75.5c-0.6,0.3-1.2,0.4-1.7,0.6v9c1.2-0.3,2.5-0.9,4.8-1.8
	c5-1.9,158.8-66.6,172-72.1c0.6-0.2,0.9,0,0.8,0.9l-58.3,368.3c-0.2,1.5-0.9,1.8-1.6,2.2l-114.9,45.1c-1.1,0.3-1.9,0.6-2.7,0.8v7.7
	c1.1-0.2,2.2-0.6,3.3-1c6.2-2.3,115.9-45.3,117.9-46.1s4.2-2.1,4.7-5.7s59.8-378.9,60.2-381.4C1264.5,344.5,1263.8,344,1262.1,344.7
	z"/>
<path class="st36" d="M1270.2,322.8c-3,1.1-189.5,72.7-191.6,73.5c-0.2,0.1-0.4,0.2-0.6,0.2c-1.6,0.6-2.1,0.8-3.9,0.2
	c-2-0.7-74-28.4-77.8-29.8c-3.8-1.3-4.5-3-4.8-5.2s-29.3-251.8-30.4-260.4s-6-10.2-11.5-11.7c-36.3-9.1-138-34.3-182-43.3
	c-4.5-0.9-6.4,1.2-6.1,4.6s9.3,80.5,10.6,90.8c0.7,5.7,3.2,6.9,6.4,8.2c0,0,66.2,28.6,68.5,29.6c3.5,1.6,3.7,4.1,3.9,6.2l63.7,421.2
	c0.2,3.8-2.9,5.7-6.2,4.6c-2.6-1.1-41.6-17.8-45.2-19.2c-4.2-1.7-7.4,1.4-6.8,5.4c0.9,5.5,19.5,106.9,20.9,115.3
	c0.8,4.8,2,5.2,4.6,6.3c3.7,1.6,185.4,77.6,189.8,79.2c3.7,1.4,4.2,1.9,6.4,1.2c0.4-0.1,0.9-0.3,1.5-0.6
	c3.6-1.4,125.1-52.1,129.1-54.1c3.4-1.7,3.7-3.5,4.2-7.2s64.4-404.5,65.3-409.5S1273.2,321.7,1270.2,322.8z M1268.2,344.8
	c-0.9,5.7-60.7,384-61.1,386.2c-0.4,2.2-0.8,3.5-3.2,4.6c-2.3,1.1-122.9,48.4-122.9,48.4c-1.1,0.4-2.1,0.8-2.9,1
	c-1.9,0.5-3.5,0.4-6.7-0.7c-4.8-1.7-171.8-65-183-69.4c-2.5-0.9-3.8-2-4.4-5.7s-19-101.7-19-101.7c-0.8-4.2,3.2-6.8,6.6-5.2
	l47.8,20.8c2.8,1,7.4-0.2,6.4-6.4c-4.2-25.4-67.8-435.3-67.8-435.3c-0.7-3.1-0.8-3.8-4.5-5.3s-70.4-26.8-73.4-28.2
	c-3-1.3-4.3-3.8-4.8-7.8c-1.8-15-9.8-83.1-10.1-85.8s1.7-5.4,7-3.8c10,3.2,163.1,49.9,167.1,51.1c4,1.2,9.4,3.7,10.3,11.4
	c0.8,6.7,29,256.2,29,256.2c0.2,3.1,0.4,5.2,3.8,6.6s87.8,35.8,89.6,36.5c2.5,0.9,3.5,1.2,6,0.4c0.7-0.2,1.4-0.5,2.3-0.8
	c14.3-5.7,177.7-71.7,181-73C1264.7,337.5,1268.9,340.2,1268.2,344.8z"/>
<path class="st33" d="M997.4,466.4c-9.6-3.7-13.7,6.1-13.4,11.5c0.1,2.5,20.6,181.8,20.6,181.8c0.8,6.8,1.5,10.6,8,13.5
	c9.4,4.2,46.3,20.3,60.7,26.5c1.7,0.7,3.2,1.1,4.7,1.1v-4c-1.2,0-2.4-0.4-4.1-1.1c-3.4-1.4-55.6-24.6-59.4-26.4s-3.9-3.8-4.4-6.8
	s-20.6-185.1-20.6-185.1c0-4.9,3.6-7.3,7.1-6.1s76.4,29.2,78.6,30.1c1.1,0.4,1.9,0.7,2.7,0.7v-5.6c-1.1,0-2.3-0.1-3.7-0.6
	C1071.1,494.8,1007.9,470.5,997.4,466.4z"/>
<path class="st33" d="M1072.1,412.3c-1.9-0.7-86.3-35.1-89.6-36.5s-3.5-3.6-3.8-6.6c0,0-28.2-249.4-29-256.2
	c-1-7.7-6.4-10.2-10.3-11.4c-3.9-1.2-157.1-47.9-167.1-51.1c-5.3-1.7-7.3,1-7,3.8s8.2,70.8,10.1,85.8c0.5,4,1.8,6.4,4.8,7.8
	c3,1.3,69.8,26.7,73.4,28.2s3.8,2.2,4.5,5.3c0,0,63.6,409.9,67.8,435.3c1,6.2-3.6,7.4-6.4,6.4l-47.8-20.8c-3.4-1.6-7.3,1-6.6,5.2
	c0,0,18.4,98,19,101.7s1.9,4.8,4.4,5.7c11.2,4.3,178.2,67.6,183,69.4c3.2,1.1,4.8,1.3,6.7,0.7v-4.1c-1.6,0.3-3.3,0.3-5.2-0.4
	c-4-1.6-169.7-64.3-178-67.5c-3.8-1.5-4.1-2.3-4.8-5.8s-16.9-90.7-16.9-90.7c-1.2-5.1,3.3-7.7,6.7-6.2c0,0,42,18.7,46.9,20.5
	c5,1.9,7.2-1.7,6.4-6.5c-3.3-20.1-69.5-444.1-69.5-444.1c-0.6-3.6-1.2-4.8-4.2-6.1s-69.8-26.8-73.3-28.3s-4.6-3.7-5.1-7.5
	c-2-15.2-9.6-70.7-10.3-76.5c-0.4-3.4,0.8-5.7,5.3-4.3c7.1,2.3,157.8,47,164.8,50s7.1,8.4,7.6,12.6c0.5,4.2,28.4,251.2,28.8,255
	c0.3,3.2,1.4,4.4,3.3,5.4s80.8,34.4,94.3,40.1c1.1,0.4,1.9,0.5,3.3,0.2v-8.1C1075.6,413.5,1074.5,413.3,1072.1,412.3z"/>
<path class="st34" d="M999.4,463.7c-11.6-4.4-19.4,7-18.3,15.6c0.5,4,18.8,166.4,20.3,179.7c0.8,6.7,0.9,12.8,9.4,16.6
	c9.4,4.2,45.9,20.2,60.3,26.5c2.6,1.1,4.9,1.5,7,1.4v-2.7c-1.5,0-3-0.4-4.7-1.1c-14.4-6.2-51.3-22.3-60.7-26.5
	c-6.5-2.9-7.3-6.7-8-13.5c0,0-20.5-179.3-20.6-181.8c-0.3-5.4,3.9-15.3,13.4-11.5c10.5,4.1,73.7,28.4,76.9,29.5
	c1.4,0.5,2.7,0.6,3.7,0.6v-2.9c-1.2-0.1-2.5-0.4-4.1-1C1070.8,491.5,1014,469.3,999.4,463.7z"/>
<path class="st35" d="M1074.8,420.6c-13.5-5.6-92.4-39.1-94.3-40.1s-3-2.2-3.3-5.4c-0.4-3.8-28.3-250.8-28.8-255
	c-0.5-4.2-0.7-9.6-7.6-12.6S783.1,59.8,776,57.5c-4.4-1.4-5.7,0.9-5.3,4.3c0.7,5.8,8.3,61.2,10.3,76.5c0.5,3.8,1.5,6,5.1,7.5
	s70.3,27.1,73.3,28.3s3.7,2.5,4.2,6.1c0,0,66.1,424.1,69.5,444.1c0.8,4.8-1.4,8.4-6.4,6.5c-5-1.9-46.9-20.5-46.9-20.5
	c-3.4-1.5-7.8,1.1-6.7,6.2c0,0,16.2,87.2,16.9,90.7s1,4.3,4.8,5.8c8.3,3.2,174,66,178,67.5c1.9,0.7,3.6,0.7,5.2,0.4v-7.7
	c-1.4,0.3-2.7,0.3-5.3-0.7c-7.3-2.7-171.5-65.1-171.5-65.1c-2.7-1-4-1.8-4.5-4.8s-15-80.8-15.2-81.7s0.3-1.3,0.9-1l52.4,22.8
	c5,2.1,7.9-2,7.4-5.1c-3.2-19.3-72.6-461.7-72.6-461.7c-0.7-4.8-1.2-6.3-5.8-8.2c-4.6-1.8-71.5-27.5-73.6-28.4s-2.3-1.3-2.9-5
	c-0.6-3.7-8.2-61.5-8.7-64.8c-0.5-3.3,0-3.7,2.7-2.7c2.7,1,141.8,42.9,148.9,45.1c7.1,2.2,9.7,5.8,10.4,12.2
	c0.6,6.3,28.5,248.8,28.9,253.2c0.4,4.4,0.6,7.4,7.7,10.5c7.1,3,88,37.8,94.2,40.5c3.5,1.5,5,1.9,6.7,1.5v-9
	C1076.7,421.2,1075.9,421.1,1074.8,420.6z"/>
<path class="st37" d="M1014.6,669.4c3.8,1.8,56,25,59.4,26.4c1.7,0.7,2.9,1.1,4.1,1.1v-36.3c-0.9,0.1-1.8,0-2.9-0.5
	c-2.8-1.1-38.2-14.9-40.2-15.8c-0.9-0.4-1.5-0.8-2-1.4l-22.1,23.1C1011.5,667.2,1012.4,668.3,1014.6,669.4z"/>
<path class="st38" d="M1022.2,500.8c4.7,2.2,49.8,23.7,52.3,24.8c1.5,0.7,2.5,0.9,3.6,0.8v-24.2c-0.8,0-1.6-0.3-2.7-0.7
	c-2.2-0.9-75.1-29-78.6-30.1c-2.2-0.7-4.4,0-5.7,1.7l26.7,28.6C1018.7,500.5,1020.5,500,1022.2,500.8z"/>
<linearGradient id="SVGID_00000018934141535683598930000006264073540442748046_" gradientUnits="userSpaceOnUse" x1="1046.1093" y1="578.2161" x2="974.2481" y2="564.3091">
	<stop  offset="0" style="stop-color:#FFFFFF"/>
	<stop  offset="5.191380e-02" style="stop-color:#CECDCD"/>
	<stop  offset="0.1061" style="stop-color:#A2A2A2"/>
	<stop  offset="0.1629" style="stop-color:#7C7C7C"/>
	<stop  offset="0.2216" style="stop-color:#5E5D5D"/>
	<stop  offset="0.2828" style="stop-color:#464545"/>
	<stop  offset="0.3476" style="stop-color:#353434"/>
	<stop  offset="0.4184" style="stop-color:#2B2A2A"/>
	<stop  offset="0.5065" style="stop-color:#282727"/>
	<stop  offset="0.6425" style="stop-color:#313130"/>
	<stop  offset="0.7835" style="stop-color:#41403F"/>
	<stop  offset="0.9262" style="stop-color:#565655"/>
	<stop  offset="1" style="stop-color:#646363"/>
</linearGradient>
<path style="fill:url(#SVGID_00000018934141535683598930000006264073540442748046_);" d="M989.6,477.5c0,0,20.1,182.1,20.6,185.1
	c0.2,1.2,0.4,2.3,0.7,3.3l22.1-23.1c-0.6-0.8-0.9-2.1-1.1-4.1c-0.7-6.8-14.4-128.9-15.1-134.1c-0.1-1.2,0.2-2.2,0.9-3L991,473.1
	C990.2,474.2,989.6,475.7,989.6,477.5z"/>
<path class="st40" d="M1118.2,644.9c-2.5,1.1-36.4,14.4-38.2,15.1c-0.7,0.3-1.3,0.4-1.8,0.5v36.3c1.2,0,2.3-0.3,4.1-1.1
	c3.5-1.5,56-24.5,58.8-26c2-1.1,3.3-1.8,4.1-3.4l-24.6-22.9C1119.9,644.1,1119.2,644.5,1118.2,644.9z"/>
<linearGradient id="SVGID_00000056402593408752394190000014737558527021865111_" gradientUnits="userSpaceOnUse" x1="1120.3867" y1="569.4578" x2="1166.9076" y2="569.4578">
	<stop  offset="0" style="stop-color:#FFFFFF"/>
	<stop  offset="5.191380e-02" style="stop-color:#CECDCD"/>
	<stop  offset="0.1061" style="stop-color:#A2A2A2"/>
	<stop  offset="0.1629" style="stop-color:#7C7C7C"/>
	<stop  offset="0.2216" style="stop-color:#5E5D5D"/>
	<stop  offset="0.2828" style="stop-color:#464545"/>
	<stop  offset="0.3476" style="stop-color:#353434"/>
	<stop  offset="0.4184" style="stop-color:#2B2A2A"/>
	<stop  offset="0.5065" style="stop-color:#282727"/>
	<stop  offset="0.6425" style="stop-color:#313130"/>
	<stop  offset="0.7835" style="stop-color:#41403F"/>
	<stop  offset="0.9262" style="stop-color:#565655"/>
	<stop  offset="1" style="stop-color:#646363"/>
</linearGradient>
<path style="fill:url(#SVGID_00000056402593408752394190000014737558527021865111_);" d="M1134.8,502.8c0.6,0.6,1,1.5,0.9,2.6
	c-0.2,3.1-13.6,129.8-14.2,135.1c-0.2,1.4-0.5,2.3-1,2.9l24.6,22.9c0.3-0.6,0.6-1.3,0.7-2.2c0.6-3.2,20.6-178.6,21.1-185.6
	c0.2-2.9-0.5-4.8-1.6-5.9L1134.8,502.8z"/>
<path class="st42" d="M1160.2,471.1c-2.1,0.6-76.6,29.4-79.1,30.4c-1.3,0.5-2.2,0.7-3.1,0.7v24.2c0.7-0.1,1.4-0.3,2.3-0.7
	c2.2-1,48.8-22.8,50.7-23.7c1.2-0.5,2.8-0.3,3.8,0.7l30.5-30.2C1163.7,471,1161.5,470.8,1160.2,471.1z"/>
<path class="st43" d="M1137.9,505.8c0,0.1,0,0.2,0,0.2c-0.2,3.1-14,131.2-14.6,136.5c-0.4,2.8-1.3,3.6-3.3,4.5
	c-2.6,1.1-37.4,14.6-39.3,15.2c-1.9,0.7-3,0.7-4.9,0c-2.9-1.1-39.2-15.1-41.3-15.9c-2.1-0.8-2.8-1.9-3.2-5.6
	c-0.8-6.9-14.8-130.2-15.5-135.4c0-0.2,0-0.4,0-0.5c-0.3,0.6-0.4,1.4-0.3,2.2c0.7,5.3,14.8,128.5,15.6,135.4
	c0.4,3.6,1.1,4.7,3.2,5.6c2.1,0.8,38.6,14.8,41.5,15.9c1.9,0.7,3,0.7,4.9,0c1.9-0.7,37-14.1,39.5-15.2c2.1-0.9,3-1.7,3.4-4.5
	c0.7-5.3,14.6-133.3,14.7-136.5C1138.3,506.9,1138.2,506.3,1137.9,505.8z"/>
<path class="st33" d="M1134.3,502.4c0.9,0.6,1.5,1.6,1.4,3c-0.2,3.1-13.6,129.8-14.2,135.1c-0.3,2.8-1.3,3.5-3.2,4.4
	c-2.5,1.1-36.4,14.4-38.2,15.1c-1.8,0.7-2.9,0.7-4.8,0c-2.8-1.1-38.2-14.9-40.2-15.8s-2.7-1.9-3.1-5.5
	c-0.7-6.8-14.4-128.9-15.1-134.1c-0.2-1.5,0.4-2.7,1.3-3.4c-1.5,0.6-2.6,2.1-2.3,4c0.6,5.3,14.7,128.5,15.5,135.4
	c0.4,3.6,1.1,4.7,3.2,5.6c2.1,0.8,38.4,14.8,41.3,15.9c1.9,0.7,3,0.7,4.9,0c1.9-0.7,36.7-14.1,39.3-15.2c2-0.9,3-1.7,3.3-4.5
	c0.7-5.3,14.5-133.3,14.6-136.5C1138.1,503.5,1136.1,502.3,1134.3,502.4z"/>
</svg>
