<?xml version="1.0" encoding="UTF-8"?>
<svg width="2016px" height="1224px" viewBox="0 0 2016 1224" version="1.1" xmlns="http://www.w3.org/2000/svg" xmlns:xlink="http://www.w3.org/1999/xlink">
   
    <defs>
        <path d="M32.475,34.377 C56.676,12.243 98.283,0.03 146.633,0.03 C177.804,0.03 205.272,4.693 230.607,15.276 C269.809,31.651 293.356,66.494 293.356,108.484 C293.356,141.62 281.131,170.253 256.973,189.218 C232.354,208.545 191.359,219.69 146.633,219.69 C103.138,219.69 64.634,210.051 40.193,191.798 C14.606,172.691 0.053,143.006 0.053,109.719 C0.053,88.877 5.678,58.887 32.475,34.377 Z M100.376,109.943 C100.376,134.53 121.182,154.461 146.847,154.461 C172.512,154.461 193.319,134.53 193.319,109.943 C193.319,85.355 172.512,65.424 146.847,65.424 C121.182,65.424 100.376,85.355 100.376,109.943 Z" id="path-1"></path>
        <path d="M214.245,20.1845 L214.245,0.597 C213.063,0.893 211.817,1.04 210.51,1.04 L4.7,1.04 C3.392,1.04 2.146,0.893 0.964,0.597 L0.964,20.1845 L0.964,0.597 L214.245,0.597 L214.245,20.1845 Z" id="path-3"></path>
        <path d="M255.665,0.333 C253.665,4.833 247.332,11.662 238.498,11.662 L0.498,11.662 L0.498,19.5 C0.498,19.5 12.348,25.999 12.348,37.333 L12.344,37.333 L12.37,195.427 C12.37,204.912 8.319,210.986 1.794,214.666 L1.794,222.114 L238.386,222.114 C250.003,222.114 255.344,229.876 258.149,235.35 L266.223,235.35 L266.223,154.167 L259.35,154.167 C256.885,159.89 250.451,163.889 244.165,163.889 L108.732,163.889 L108.732,143.032 L205.761,143.032 C218.066,143.032 219.494,149.091 222.298,154.566 L234.289,154.566 L234.289,78.383 L220.658,78.383 C218.583,82.415 215.054,87.543 207.948,87.543 L108.898,87.543 L108.898,69.699 L240.498,69.699 C245.498,69.699 253.73,74 255.665,82.333 L263.148,82.167 L263.148,0.333 L255.665,0.333 Z" id="path-5"></path>
        <path d="M255.6,0.333 C253.6,4.833 247.267,11.662 238.433,11.662 L0.434,11.662 L0.434,19.5 C0.434,19.5 12.284,25.999 12.284,37.333 L12.281,37.333 L12.306,195.427 C12.306,204.912 8.255,210.986 1.731,214.666 L1.731,222.114 L238.321,222.114 C249.938,222.114 255.281,229.876 258.084,235.35 L266.158,235.35 L266.158,154.167 L259.286,154.167 C256.821,159.89 250.386,163.889 244.101,163.889 L108.667,163.889 L108.667,143.032 L205.696,143.032 C218.002,143.032 219.43,149.091 222.234,154.566 L234.224,154.566 L234.224,78.383 L220.594,78.383 C218.518,82.415 214.989,87.543 207.883,87.543 L108.833,87.543 L108.833,69.699 L240.433,69.699 C245.434,69.699 253.665,74 255.6,82.333 L263.083,82.167 L263.083,0.333 L255.6,0.333 Z" id="path-7"></path>
        <path d="M0.244,0.505 L0.244,32.924 L78.924,32.924 C88.817,32.924 97.664,25.666 97.664,16.715 C97.664,7.763 89.387,0.505 80.095,0.505 L0.244,0.505 Z M6.177,6.469 L76.481,6.469 C85.079,6.469 91.932,10.332 91.932,17.185 C91.932,23.166 84.206,27.152 77.104,27.152 L6.177,27.152 L6.177,6.469 Z M0.244,0.505 L97.664,0.505 L97.664,32.924 L0.244,32.924 L0.244,0.505 Z" id="path-9"></path>
        <path d="M35.896,184.699 L0.653,184.699 C1.011,183.874 1.921,181.787 1.921,179.787 L1.921,7.427 C1.921,5.004 1.872,1.622 0.653,0.138 L82.428,0.138 L170.884,109.421 C173.502,112.59 178.049,110.522 178.049,105.425 L178.049,2.639 C178.049,1.261 177.36,0.138 177.36,0.138 L212.7705,0.138 L0.653,0.138 L0.653,184.699 L35.896,184.699 L35.896,184.699 Z" id="path-11"></path>
        <path d="M36.0505,184.699 L0.305,184.699 C1.554,182.949 1.671,181.531 1.671,178.08 L1.671,5.666 C1.671,3.166 0.305,0.166 0.305,0.166 L201.552,0.166 C222.813,0.166 249.8,20.576 249.8,57.578 C249.8,89.867 227.29,105.661 215.241,109.815 C207.492,112.487 206.244,118.544 211.844,126.729 C217.443986,134.912979 250.132836,184.69875 250.133,184.699 L207.4165,184.699 L250.133,184.699 L36.0505,184.699 Z M71.295,36.322 L159.311,36.322 C169.381,36.322 176.483,43.497 176.483,54.556 C176.483,64.625 169.873,72.789 158.602,72.789 L71.295,72.789 L71.295,36.322 Z" id="path-13"></path>
        <path d="M69.77,0.423 C69.783,0.423 69.795,0.422 69.808,0.422 C73.309,0.422 76.148,3.26 76.148,6.762 C76.148,10.264 73.309,13.102 69.808,13.102 L69.808,13.104 L0.946,13.104 L0.946,0.423 L69.77,0.423 Z M2.945,2.424 L2.945,11.104 L69.208,11.104 L69.208,11.102 C71.601,11.102 73.548,9.154 73.548,6.762 C73.548,4.383 71.624,2.446 69.25,2.422 C69.221,2.423 2.945,2.424 2.945,2.424 Z" id="path-15"></path>
        <path d="M177.198182,0.801735017 C177.089308,0.801735002 176.963243,0.831532114 176.824,0.89 L4.851,73.009 C2.588,73.851 1.3,74.509 0.067,74.771 L0.067,138.623 C1.314,138.69 2.459,138.488 3.678,138.01 C5.722,137.208 63.388,114.671 78.771,108.709 C90.334,104.229 98.202,115.719 97.062,124.35 C96.536,128.326 78.301,290.71 76.77,304.018 C75.998,310.723 75.894,316.886 67.348,320.622 C57.063,325.118 22.238,340.18 6.504,346.999 C4.395,347.844 2.308,348.453 0.067,348.542 L0.067,418.172 C0.861,417.99 1.667,417.69 2.737,417.379 L117.651,372.325 C118.392,371.96 119.047,371.654 119.287,370.121 L177.576,1.79 C177.612567,1.62535397 177.629829,1.48205323 177.629829,1.35952409 L177.629829,0.801735017 L177.198182,0.801735017 L177.198182,0.801735017 Z" id="path-17"></path>
        <path d="M0.713,3.526 C0.376,1.248 0.506,0.372 1.507,0.372 C1.952,0.372 2.569,0.545 3.394,0.844 C6.075,1.819 145.227,43.737 152.294,45.93 C159.362,48.123 162.043,51.779 162.652,58.115 C163.261,64.451 191.164,306.933 191.529,311.319 C191.896,315.706 192.139,318.752 199.206,321.798 C206.274,324.844 287.194,359.572 293.397,362.252 C296.919,363.776 298.446,364.117 300.068,363.771 L300.068,427.623 C298.856,427.557 297.549,427.237 295.984,426.657 C292.804,425.479 236.016,403.292 221.364,397.709 C209.775,393.295 201.933,404.719 203.073,413.35 C203.599,417.326 221.834,579.71 223.366,593.018 C224.137,599.723 224.26,605.843 232.786,609.622 C242.175,613.783 278.663,629.839 293.08,636.119 C295.654,637.239 297.93,637.627 300.068,637.542 L300.068,707.172 C298.693,707.487 297.354,707.448 294.748,706.5 C287.415,703.833 123.248,641.416 123.248,641.416 C120.582,640.416 119.248,639.583 118.748,636.583 C118.248,633.583 103.748,555.833 103.581,554.917 C103.415,554 103.906,553.657 104.529,553.928 L156.965,576.737 C161.961,578.808 164.878,574.753 164.357,571.59 C161.189,552.338 91.736,109.901 91.736,109.901 C91.004,105.149 90.516,103.564 85.887,101.737 C81.256,99.909 14.361,74.199 12.289,73.346 C10.217,72.493 9.973,72.006 9.364,68.35 C8.756,64.694 1.201,6.815 0.713,3.526 Z" id="path-19"></path>
    </defs>
    <g id="Page-1" stroke="none" stroke-width="1" fill="none" fill-rule="evenodd">
        <g id="Bertone-logo">
            <path d="M0.1,822.662 L0.1,830.536 C8.2,832.561 14.998,839.197 14.998,847.409 L14.998,847.409 L14.998,1008.811 C14.998,1015.676 11.576,1022.652 0.768,1024.541 L0.768,1024.541 L0.768,1033.114 L228.331,1033.114 C257.998,1033.114 293.664,1006.833 294.998,969.5 L294.998,969.5 C296.076,939.323 277.999,922.833 274.331,918.833 L274.331,918.833 C282.998,907.166 286.973,893.222 285.331,875.166 L285.331,875.166 C283.331,853.166 264.664,822.662 234.164,822.662 L234.164,822.662 L0.1,822.662 Z M110.945,885.424 C110.945,885.424 177.221,885.423 177.25,885.422 L177.25,885.422 C179.624,885.446 181.548,887.383 181.548,889.762 L181.548,889.762 C181.548,892.154 179.601,894.102 177.208,894.102 L177.208,894.102 L177.208,894.104 L110.945,894.104 L110.945,885.424 Z M110.177,956.469 L178.606,956.469 C183.964,956.469 191.665,958.689 191.665,965.185 L191.665,965.185 C191.665,969.172 185.833,972.922 178.731,972.922 L178.731,972.922 L110.177,972.922 L110.177,956.469 Z" id="Fill-1"></path>
            <path d="M180.9243,980.9238 L102.2443,980.9238 L102.2443,948.5048 L182.0943,948.5048 C191.3873,948.5048 199.6633,955.7628 199.6633,964.7148 C199.6633,973.6658 190.8173,980.9238 180.9243,980.9238 L180.9243,980.9238 Z M103.0133,877.4288 L181.3193,877.4288 C184.1553,877.4288 186.5603,878.1958 188.4433,879.5948 C190.7263,881.8018 192.0103,885.1348 192.0103,889.3268 C192.0103,895.2008 188.7683,902.0608 179.6303,902.0608 L103.0133,902.0608 L103.0133,877.4288 Z M264.8733,920.4988 C264.8733,920.4988 281.7483,908.4988 279.9983,877.1238 C278.8953,857.3498 261.7113,829.3818 235.0143,829.3818 L12.2803,829.3818 L12.2803,831.2248 C16.2923,831.7668 21.6143,835.1278 21.6143,839.8978 L21.6143,1017.3168 C21.6143,1022.0858 16.2923,1025.4468 12.2803,1025.9888 L12.2803,1027.8318 L224.7403,1027.8318 C252.4043,1027.8318 289.4983,1005.6238 289.4983,969.2858 C289.4983,936.2488 264.8733,920.4988 264.8733,920.4988 L264.8733,920.4988 Z" id="Fill-3" fill="#1A1919"></path>
            <path d="M590.734,822.65 L590.734,830.649 C599.992,834.066 606.499,842.139 606.499,848.521 L606.499,848.521 L606.499,1006.427 C606.499,1015.912 602.538,1023.52 592.606,1026.82 L592.606,1026.82 L592.606,1033.114 L713.527,1033.114 L713.527,1025.374 C704.373,1020.7 700.41,1013.554 700.41,1005.006 L700.41,1005.006 L700.41,956.068 L724.549,956.068 C726.99,956.068 731.065,957.499 732.877,960.317 L732.877,960.317 C737.168,966.99 759.719,1001.53 764.465,1008.991 L764.465,1008.991 C768.048,1014.624 769.591,1022.107 760.708,1027.218 L760.708,1027.218 L760.708,1033.114 L888.728,1033.114 L888.728,1020.127 C881.873,1016.999 878.574,1013.713 872.524,1004.156 L872.524,1004.156 C867.037,995.487 867.522,996.136 848.207,966.969 L848.207,966.969 C843.133,958.565 847.077,953.345 852.165,949.499 L852.165,949.499 C862.203,941.91 880.248,924.623 880.248,893.578 L880.248,893.578 C880.248,850.873 850.389,822.65 816.498,822.65 L816.498,822.65 L590.734,822.65 Z M689.295,872.322 L777.311,872.322 C787.381,872.322 794.483,879.497 794.483,890.556 L794.483,890.556 C794.483,900.625 787.873,908.789 776.602,908.789 L776.602,908.789 L689.295,908.789 L689.295,872.322 Z" id="Fill-5"></path>
            <g id="Group-9" transform="translate(1144.000000, 820.000000)">
                <mask id="mask-2" fill="white">
                    <use xlink:href="#path-1"></use>
                </mask>
                <g id="Clip-8"></g>
                <path d="M32.475,34.377 C5.678,58.887 0.053,88.877 0.053,109.719 L0.053,109.719 C0.053,143.006 14.606,172.691 40.193,191.798 L40.193,191.798 C64.634,210.051 103.138,219.69 146.633,219.69 L146.633,219.69 C191.359,219.69 232.354,208.545 256.973,189.218 L256.973,189.218 C281.131,170.253 293.356,141.62 293.356,108.484 L293.356,108.484 C293.356,66.494 269.809,31.651 230.607,15.276 L230.607,15.276 C205.272,4.693 177.804,0.03 146.633,0.03 L146.633,0.03 C98.283,0.03 56.676,12.243 32.475,34.377 M100.376,109.943 C100.376,85.355 121.182,65.424 146.847,65.424 L146.847,65.424 C172.512,65.424 193.319,85.355 193.319,109.943 L193.319,109.943 C193.319,134.53 172.512,154.461 146.847,154.461 L146.847,154.461 C121.182,154.461 100.376,134.53 100.376,109.943" id="Fill-7" mask="url(#mask-2)"></path>
            </g>
            <g id="Group-14" transform="translate(1.000000, 1093.000000)">
                <polygon id="Fill-10" fill="#119046" points="0.29 34.352 671.665 34.352 671.665 0.108 0.29 0.108"></polygon>
                <polygon id="Fill-12" fill="#FFFFFE" points="671.664 34.352 1343.039 34.352 1343.039 0.108 671.664 0.108"></polygon>
                <polygon id="Fill-13" fill="#C62534" points="1343.039 34.352 2014.414 34.352 2014.414 0.108 1343.039 0.108"></polygon>
            </g>
            <path d="M1129.942,813.803 C1125.626,819.604 1122.872,822.923 1114.323,822.923 L1114.323,822.923 L917.89,822.923 C909.342,822.923 905.393,818.478 901.973,813.803 L901.973,813.803 L896.574,813.803 L896.574,895.186 L901.973,895.186 C905.465,890.857 908.435,886.753 916.983,886.753 L916.983,886.753 L967.898,886.753 L967.898,1005.332 C967.898,1015.832 962.536,1021.527 952.504,1026.521 L952.504,1026.521 L952.504,1033.114 L1079.697,1033.114 L1079.697,1026.521 C1068.796,1020.499 1064.303,1013.881 1064.403,1005.332 L1064.403,1005.332 L1064.403,886.753 L1115.229,886.753 C1123.778,886.753 1126.747,890.857 1130.24,895.186 L1130.24,895.186 L1135.639,895.186 L1135.639,813.803 L1129.942,813.803 Z" id="Fill-15"></path>
            <path d="M1128.0928,823.582 C1126.9268,825.749 1124.8408,829.202 1120.0078,829.202 L913.4998,829.202 C908.6668,829.202 906.5818,825.749 905.4148,823.582 L903.2648,824 L903.2648,885.749 L905.2108,886.372 C907.0818,883.332 908.2678,880.933 915.2748,880.933 L974.5378,880.933 L974.5378,1012.666 C974.5378,1019.673 967.7848,1023.427 964.0378,1025.886 L964.6608,1027.832 L1069.0418,1027.832 L1069.6648,1025.886 C1065.9178,1023.427 1058.9658,1019.673 1058.9658,1012.666 L1058.9658,880.933 L1118.2338,880.933 C1125.2398,880.933 1126.4268,883.332 1128.2978,886.372 L1130.2428,885.749 L1130.2428,824 L1128.0928,823.582 Z" id="Fill-17" fill="#272726"></path>
            <g id="Group-21" transform="translate(909.000000, 835.000000)">
                <mask id="mask-4" fill="white">
                    <use xlink:href="#path-3"></use>
                </mask>
                <g id="Clip-20"></g>
                <path d="M210.51,1.04 L4.7,1.04 C3.392,1.04 2.146,0.893 0.964,0.597 L0.964,0.597 L0.964,39.772 C2.527,39.426 4.342,39.234 6.474,39.234 L6.474,39.234 L72.171,39.234 L72.171,178.881 C72.171,182.331 71.454,183.75 70.204,185.499 L70.204,185.499 L144.998,185.499 C143.748,183.75 143.031,182.331 143.031,178.881 L143.031,178.881 L143.031,39.234 L208.735,39.234 C210.868,39.234 212.682,39.426 214.245,39.772 L214.245,39.772 L214.245,0.597 C213.063,0.893 211.817,1.04 210.51,1.04" id="Fill-19" mask="url(#mask-4)"></path>
            </g>
            <g id="Group-38" transform="translate(675.000000, 825.000000)">
                <path d="M60.5913,378.0996 C60.5913,389.8316 56.9543,392.0246 45.4143,392.0246 L6.9353,392.0246 L6.9353,351.5616 L42.3403,351.5616 C53.6033,351.5616 60.5913,351.5616 60.5913,363.7526 L60.5913,378.0996 Z M43.1533,346.7486 L0.4353,346.7486 L0.4353,396.9366 L43.2863,396.9366 C59.5083,396.9366 67.1913,393.7876 67.1913,378.3686 L67.1913,365.4956 C67.1913,349.5406 59.1063,346.7486 43.1533,346.7486 L43.1533,346.7486 Z" id="Fill-22" fill="#414241"></path>
                <path d="M125.7788,380.4922 L144.5768,350.5342 L163.3758,380.4922 L125.7788,380.4922 Z M139.3338,346.7492 L107.7908,396.9362 L115.4598,396.9362 L122.7588,385.3042 L166.3958,385.3042 L173.6948,396.9362 L180.7178,396.9362 L149.0928,346.7492 L139.3338,346.7492 Z" id="Fill-24" fill="#414241"></path>
                <polygon id="Fill-26" fill="#414241" points="364.7998 360.2969 368.0598 364.4409 384.6578 351.3109 384.6578 396.9369 391.1578 396.9369 391.1578 346.7489 381.9268 346.7489"></polygon>
                <polygon id="Fill-28" fill="#414241" points="538.874 360.2969 542.134 364.4409 558.732 351.3109 558.732 396.9369 565.232 396.9369 565.232 346.7489 556.001 346.7489"></polygon>
                <polygon id="Fill-30" fill="#414241" points="230.8457 346.749 224.3457 346.749 224.3457 396.937 274.7967 396.937 274.7967 391.874 230.8457 391.874"></polygon>
                <path d="M489.4346,363.9902 C489.4346,370.5812 485.0196,371.8432 476.0816,371.8432 L454.8656,371.8432 C448.9966,371.8432 440.5996,371.3192 440.5996,363.3582 L440.5996,358.7542 C440.5996,351.1272 449.8956,350.8082 453.1496,350.8082 L475.9296,350.8082 C482.4306,350.8082 489.4346,352.1612 489.4346,361.3702 L489.4346,363.9902 Z M474.7496,345.7532 L454.8236,345.7532 C442.9056,345.7532 433.9996,348.9082 433.9996,359.2012 L433.9996,362.9072 C434.0996,374.1242 443.3986,376.8982 457.4836,376.8982 L474.5466,376.8982 C479.5156,376.8982 486.5546,375.7272 489.5346,373.8312 L489.5346,377.9322 C489.5346,388.9932 487.1766,392.9532 474.7276,392.9532 L462.4496,392.9532 C449.7186,392.9532 442.4966,390.7152 441.8646,385.5682 L436.4486,385.5682 C436.4156,389.5812 438.5056,392.3142 441.5766,394.1912 C448.0446,398.1462 462.8226,398.1082 465.5206,398.1082 L467.0526,398.1082 C470.2106,398.1082 486.6186,398.1832 491.9646,392.4812 C494.3156,389.9742 496.0346,386.1122 496.0346,380.5822 L496.0346,362.7262 C496.0346,349.7582 488.0216,345.7532 474.7496,345.7532 L474.7496,345.7532 Z" id="Fill-32" fill="#414241"></path>
                <path d="M614.8789,386.4414 C614.8789,383.4744 615.0809,379.5384 621.3759,378.9974 C627.6709,378.4564 658.3269,376.0014 660.2929,375.7494 C665.5719,375.0724 670.2419,372.0254 670.2419,362.4154 C670.1079,356.7294 669.9029,351.1124 663.8129,348.2024 C657.7219,345.2924 646.4829,345.2074 628.2759,345.6134 C610.0699,346.0194 608.7199,354.6314 607.9009,361.8064 L614.7429,361.8064 C615.2169,355.9184 614.9409,351.3244 628.9559,350.9774 C641.2069,350.6744 646.8819,350.6494 652.8479,350.9774 C660.2249,351.3834 663.1349,353.9534 663.2709,358.4204 L663.4059,363.1584 C663.4749,369.0454 660.9029,370.2784 658.6679,370.4694 C654.5249,370.8254 631.3449,372.7954 618.4289,373.9204 C612.3799,374.4484 609.1939,378.7264 608.4489,383.1264 C607.7039,387.5254 607.9009,396.9364 607.9009,396.9364 L669.1609,396.9364 L669.1609,391.7884 L614.7429,391.7884 C614.7429,391.7884 614.8789,388.1324 614.8789,386.4414" id="Fill-34" fill="#414241"></path>
                <path d="M718.0215,174.8701 C693.4035,194.1841 654.3735,202.6331 616.4105,202.6331 C580.9575,202.6331 541.7345,195.0031 516.7785,176.3771 C495.4305,160.4441 482.1535,135.9831 482.1535,105.2411 C482.1535,82.4741 489.6255,58.2791 510.4865,39.2111 C532.1715,19.3881 571.1365,7.6491 616.4105,7.6491 C645.6645,7.6491 671.3735,12.2491 695.7825,22.4391 C730.4965,36.9321 750.6675,67.8741 750.6675,103.9991 C750.6675,134.1241 738.3635,158.9101 718.0215,174.8701 M698.3635,16.2571 C673.6915,5.9561 646.8835,0.9491 616.4105,0.9491 C569.3835,0.9491 529.1275,13.0931 505.9655,34.2661 C480.7475,57.3181 475.4535,85.5871 475.4535,105.2411 C475.4535,136.6161 488.7065,163.7861 512.7705,181.7461 C536.2605,199.2781 574.0365,209.3331 616.4105,209.3331 C659.9675,209.3331 698.5115,198.6931 722.1575,180.1411 C744.8635,162.3261 757.3685,135.2851 757.3685,103.9991 C757.3685,64.4811 735.3105,31.6811 698.3635,16.2571" id="Fill-36" fill="#272726"></path>
            </g>
            <path d="M1242.406,929.943 C1242.406,955.572 1264.093,976.348 1290.847,976.348 L1290.847,976.348 C1317.601,976.348 1339.289,955.572 1339.289,929.943 L1339.289,929.943 C1339.289,904.311 1317.601,883.536 1290.847,883.536 L1290.847,883.536 C1264.093,883.536 1242.406,904.311 1242.406,929.943 M1244.376,929.943 C1244.376,905.355 1265.182,885.424 1290.847,885.424 L1290.847,885.424 C1316.512,885.424 1337.319,905.355 1337.319,929.943 L1337.319,929.943 C1337.319,954.53 1316.512,974.461 1290.847,974.461 L1290.847,974.461 C1265.182,974.461 1244.376,954.53 1244.376,929.943" id="Fill-39"></path>
            <g id="Group-43" transform="translate(304.000000, 811.000000)">
                <mask id="mask-6" fill="white">
                    <use xlink:href="#path-5"></use>
                </mask>
                <g id="Clip-42"></g>
                <path d="M255.665,0.333 C253.665,4.833 247.332,11.662 238.498,11.662 L238.498,11.662 L0.498,11.662 L0.498,19.5 C0.498,19.5 12.348,25.999 12.348,37.333 L12.348,37.333 L12.344,37.333 L12.37,195.427 C12.37,204.912 8.319,210.986 1.794,214.666 L1.794,214.666 L1.794,222.114 L238.386,222.114 C250.003,222.114 255.344,229.876 258.149,235.35 L258.149,235.35 L266.223,235.35 L266.223,154.167 L259.35,154.167 C256.885,159.89 250.451,163.889 244.165,163.889 L244.165,163.889 L108.732,163.889 L108.732,143.032 L205.761,143.032 C218.066,143.032 219.494,149.091 222.298,154.566 L222.298,154.566 L234.289,154.566 L234.289,78.383 L220.658,78.383 C218.583,82.415 215.054,87.543 207.948,87.543 L207.948,87.543 L108.898,87.543 L108.898,69.699 L240.498,69.699 C245.498,69.699 253.73,74 255.665,82.333 L255.665,82.333 L263.148,82.167 L263.148,0.333 L255.665,0.333 Z" id="Fill-41" mask="url(#mask-6)"></path>
            </g>
            <path d="M561.4985,819 L561.4985,885 L559.7315,885 C558.0645,880.5 553.6655,874.833 548.1655,874.833 L407.3735,874.833 L407.3735,904.874 L520.8735,904.874 C524.7485,904.874 528.1235,902.499 530.9445,897.038 L532.8465,897.038 L532.8465,956.46 L530.9445,956.46 C528.1235,950.999 524.7485,948.624 520.8735,948.624 L407.3735,948.624 L407.3735,981.075 L550.6975,981.075 C558.4085,981.075 564.5515,973.5 564.5515,973.5 L564.5515,1041.145 C564.5515,1041.145 558.4085,1027.728 550.6975,1027.728 L312.5655,1027.728 C316.9405,1025.345 322.8655,1020.598 322.8655,1016.78 L322.8655,840.434 C322.8655,836.616 316.9405,831.765 312.5655,829.382 L549.4985,829.382 C553.1655,829.382 557.7295,825.999 561.4985,819" id="Fill-44" fill="#272726"></path>
            <path d="M550.998,835.989 L328.331,835.989 C328.688,836.813 329.599,839.427 329.599,841.427 L329.599,841.427 L329.599,1015.787 C329.599,1017.787 328.688,1019.874 328.331,1020.699 L328.331,1020.699 L464.165,1020.699 L549.047,1020.699 C552.355,1020.699 555.973,1021.67 557.73,1022.91 L557.73,1022.91 L557.73,986.884 C555.973,988.124 552.355,988.1 549.047,988.1 L549.047,988.1 L400.564,988.1 L400.564,941.517 L518.096,941.517 C521.404,941.517 524.093,941.404 526.024,942.408 L526.024,942.408 L526.024,910.5 C526.024,910.5 523.332,911.832 521.332,911.832 L521.332,911.832 L400.564,911.832 L400.564,868.232 L548.332,868.232 C551.332,868.232 554.664,869.665 554.664,869.665 L554.664,869.665 L554.832,834.999 C554.832,834.999 553.165,835.989 550.998,835.989" id="Fill-46"></path>
            <g id="Group-50" transform="translate(1751.000000, 811.000000)">
                <mask id="mask-8" fill="white">
                    <use xlink:href="#path-7"></use>
                </mask>
                <g id="Clip-49"></g>
                <path d="M255.6,0.333 C253.6,4.833 247.267,11.662 238.433,11.662 L238.433,11.662 L0.434,11.662 L0.434,19.5 C0.434,19.5 12.284,25.999 12.284,37.333 L12.284,37.333 L12.281,37.333 L12.306,195.427 C12.306,204.912 8.255,210.986 1.731,214.666 L1.731,214.666 L1.731,222.114 L238.321,222.114 C249.938,222.114 255.281,229.876 258.084,235.35 L258.084,235.35 L266.158,235.35 L266.158,154.167 L259.286,154.167 C256.821,159.89 250.386,163.889 244.101,163.889 L244.101,163.889 L108.667,163.889 L108.667,143.032 L205.696,143.032 C218.002,143.032 219.43,149.091 222.234,154.566 L222.234,154.566 L234.224,154.566 L234.224,78.383 L220.594,78.383 C218.518,82.415 214.989,87.543 207.883,87.543 L207.883,87.543 L108.833,87.543 L108.833,69.699 L240.433,69.699 C245.434,69.699 253.665,74 255.6,82.333 L255.6,82.333 L263.083,82.167 L263.083,0.333 L255.6,0.333 Z" id="Fill-48" mask="url(#mask-8)"></path>
            </g>
            <path d="M2008.4346,819 L2008.4346,885 L2006.6666,885 C2005.0006,880.5 2000.6006,874.833 1995.1006,874.833 L1854.3086,874.833 L1854.3086,904.874 L1967.8086,904.874 C1971.6836,904.874 1975.0586,902.499 1977.8796,897.038 L1979.7826,897.038 L1979.7826,956.46 L1977.8796,956.46 C1975.0586,950.999 1971.6836,948.624 1967.8086,948.624 L1854.3086,948.624 L1854.3086,981.075 L1997.6336,981.075 C2005.3446,981.075 2011.4876,973.5 2011.4876,973.5 L2011.4876,1041.145 C2011.4876,1041.145 2005.3446,1027.728 1997.6336,1027.728 L1759.5006,1027.728 C1763.8756,1025.345 1769.8016,1020.598 1769.8016,1016.78 L1769.8016,840.434 C1769.8016,836.616 1763.8756,831.765 1759.5006,829.382 L1996.4336,829.382 C2000.1006,829.382 2004.6646,825.999 2008.4346,819" id="Fill-51" fill="#272726"></path>
            <path d="M1997.933,835.989 L1775.267,835.989 C1775.624,836.813 1776.534,839.427 1776.534,841.427 L1776.534,841.427 L1776.534,1015.787 C1776.534,1017.787 1775.624,1019.874 1775.267,1020.699 L1775.267,1020.699 L1911.1,1020.699 L1995.984,1020.699 C1999.29,1020.699 2002.908,1021.67 2004.665,1022.91 L2004.665,1022.91 L2004.665,986.884 C2002.908,988.124 1999.29,988.1 1995.984,988.1 L1995.984,988.1 L1847.501,988.1 L1847.501,941.517 L1965.032,941.517 C1968.338,941.517 1971.028,941.404 1972.96,942.408 L1972.96,942.408 L1972.96,910.5 C1972.96,910.5 1970.266,911.832 1968.266,911.832 L1968.266,911.832 L1847.501,911.832 L1847.501,868.232 L1995.266,868.232 C1998.267,868.232 2001.601,869.665 2001.601,869.665 L2001.601,869.665 L2001.766,834.999 C2001.766,834.999 2000.1,835.989 1997.933,835.989" id="Fill-53"></path>
            <path d="M1627.152,822.662 L1627.152,829.632 C1632.135,832.434 1636.436,835.989 1636.436,844.146 L1636.436,844.146 L1636.436,902.979 C1636.436,907.388 1631.721,910.557 1627.313,905.872 L1627.313,905.872 C1621.799,900.011 1559.957,822.662 1559.957,822.662 L1559.957,822.662 L1450.266,822.662 L1450.266,832.649 C1450.266,832.649 1460.372,835.65 1460.372,846.983 L1460.372,846.983 L1460.394,1009.277 C1460.394,1018.761 1457.812,1022.91 1451.178,1026.704 L1451.178,1026.704 L1451.178,1033.114 L1563.707,1033.114 L1563.707,1028.026 C1561.501,1027.289 1554.713,1023.117 1554.713,1013.76 L1554.713,1013.76 L1554.713,964.437 C1554.713,957.823 1561.63,957.679 1565.457,962.502 L1565.457,962.502 C1572.504,971.384 1621.133,1033.004 1621.133,1033.004 L1621.133,1033.004 L1742.244,1033.004 L1742.244,1027.453 C1736.912,1025.703 1730.984,1022.91 1730.984,1011.997 L1730.984,1011.997 C1730.984,1000.398 1731.203,846.342 1731.203,842.185 L1731.203,842.185 C1731.203,838.027 1735.696,832.546 1739.774,829.931 L1739.774,829.931 L1739.774,822.662 L1627.152,822.662 Z" id="Fill-55"></path>
            <path d="M1457.7139,1027.7275 C1462.0889,1025.3445 1467.1889,1020.5975 1467.1889,1016.7805 L1467.1889,839.4585 C1467.1889,836.4575 1465.4679,833.2715 1459.8349,831.2155 L1460.2769,829.3815 L1557.7349,829.3815 L1643.0229,933.8435 L1643.0229,837.8385 C1643.0229,832.1605 1634.0669,829.3815 1634.0669,829.3815 L1735.3369,829.3815 C1729.6819,832.6645 1725.8349,835.3315 1725.8349,841.5315 L1725.8349,1018.5835 C1725.8349,1024.0955 1732.7099,1025.3335 1732.7099,1025.3335 L1732.3119,1027.7275 L1625.9429,1027.7275 L1549.3389,932.3335 L1549.3389,1017.3475 C1549.3389,1022.5825 1553.1409,1025.8125 1555.6769,1027.7275 L1457.7139,1027.7275 Z" id="Fill-57" fill="#272726"></path>
            <path d="M103.013,877.428 L103.013,902.061 L179.63,902.061 C188.768,902.061 192.01,895.201 192.01,889.327 L192.01,889.327 C192.01,885.135 190.726,881.802 188.443,879.595 L188.443,879.595 C186.56,878.196 184.155,877.428 181.319,877.428 L181.319,877.428 L103.013,877.428 Z M108.946,883.423 L177.77,883.423 C177.783,883.423 177.795,883.422 177.808,883.422 L177.808,883.422 C181.309,883.422 184.148,886.26 184.148,889.762 L184.148,889.762 C184.148,893.264 181.309,896.102 177.808,896.102 L177.808,896.102 L177.808,896.104 L108.946,896.104 L108.946,883.423 Z" id="Fill-59"></path>
            <g id="Group-63" transform="translate(102.000000, 948.000000)">
                <mask id="mask-10" fill="white">
                    <use xlink:href="#path-9"></use>
                </mask>
                <g id="Clip-62"></g>
                <path d="M0.244,0.505 L0.244,32.924 L78.924,32.924 C88.817,32.924 97.664,25.666 97.664,16.715 L97.664,16.715 C97.664,7.763 89.387,0.505 80.095,0.505 L80.095,0.505 L0.244,0.505 Z M6.177,6.469 L76.481,6.469 C85.079,6.469 91.932,10.332 91.932,17.185 L91.932,17.185 C91.932,23.166 84.206,27.152 77.104,27.152 L77.104,27.152 L6.177,27.152 L6.177,6.469 Z" id="Fill-61" mask="url(#mask-10)"></path>
            </g>
            <g id="Group-68" transform="translate(0.000000, 1092.000000)" fill="#414241">
                <path d="M1.789,34.852 L672.164,34.852 L672.164,1.608 L1.789,1.608 L1.789,34.852 Z M0.79,35.852 L673.165,35.852 L673.165,0.608 L0.79,0.608 L0.79,35.852 Z" id="Fill-64"></path>
                <path d="M673.165,34.852 L1343.54,34.852 L1343.54,1.608 L673.165,1.608 L673.165,34.852 Z M672.164,35.852 L1344.539,35.852 L1344.539,0.608 L672.164,0.608 L672.164,35.852 Z" id="Fill-66"></path>
                <path d="M1344.539,34.852 L2014.914,34.852 L2014.914,1.608 L1344.539,1.608 L1344.539,34.852 Z M1343.539,35.852 L2015.914,35.852 L2015.914,0.608 L1343.539,0.608 L1343.539,35.852 Z" id="Fill-67"></path>
            </g>
            <g id="Group-71" transform="translate(1472.000000, 836.000000)">
                <mask id="mask-12" fill="white">
                    <use xlink:href="#path-11"></use>
                </mask>
                <g id="Clip-70"></g>
                <path d="M177.36,0.138 C177.36,0.138 178.049,1.261 178.049,2.639 L178.049,2.639 L178.049,105.425 C178.049,110.522 173.502,112.59 170.884,109.421 L170.884,109.421 L82.428,0.138 L0.653,0.138 C1.872,1.622 1.921,5.004 1.921,7.427 L1.921,7.427 L1.921,179.787 C1.921,181.787 1.011,183.874 0.653,184.699 L0.653,184.699 L71.139,184.699 C69.899,184.699 70.312,180.93 70.312,179.277 L70.312,179.277 L70.312,89.718 C70.312,84.07 74.583,81.177 78.992,86.963 L78.992,86.963 L156.282,184.699 L247.494,184.699 C247.494,184.699 246.941,184.235 246.941,183.27 L246.941,183.27 L246.941,2.359 C246.941,0.844 248.181,0.138 248.181,0.138 L248.181,0.138 L177.36,0.138 Z" id="Fill-69" mask="url(#mask-12)"></path>
            </g>
            <path d="M1185.486,864.211 C1164.626,883.279 1157.153,907.473 1157.153,930.241 L1157.153,930.241 C1157.153,960.984 1170.431,985.445 1191.778,1001.377 L1191.778,1001.377 C1216.734,1020.003 1255.957,1027.633 1291.41,1027.633 L1291.41,1027.633 C1329.373,1027.633 1368.403,1019.185 1393.021,999.87 L1393.021,999.87 C1413.363,983.91 1425.668,959.124 1425.668,928.999 L1425.668,928.999 C1425.668,892.874 1405.496,861.931 1370.782,847.44 L1370.782,847.44 C1346.373,837.249 1320.664,832.649 1291.41,832.649 L1291.41,832.649 C1246.137,832.649 1207.172,844.388 1185.486,864.211 M1231.63,930.142 C1231.63,898.102 1258.402,872.131 1291.429,872.131 L1291.429,872.131 C1324.454,872.131 1351.226,898.102 1351.226,930.142 L1351.226,930.142 C1351.226,962.18 1324.454,988.153 1291.429,988.153 L1291.429,988.153 C1258.402,988.153 1231.63,962.18 1231.63,930.142" id="Fill-72"></path>
            <g id="Group-78" transform="translate(602.000000, 829.000000)">
                <path d="M689.4453,153.7549 C659.2213,153.7549 634.7243,130.2849 634.7243,101.3309 C634.7243,72.3789 659.2213,48.9089 689.4453,48.9089 C719.6683,48.9089 744.1673,72.3789 744.1673,101.3309 C744.1673,130.2849 719.6683,153.7549 689.4453,153.7549 M689.4283,43.1309 C656.4023,43.1309 629.6303,69.1019 629.6303,101.1419 C629.6303,133.1799 656.4023,159.1519 689.4283,159.1519 C722.4543,159.1519 749.2263,133.1799 749.2263,101.1419 C749.2263,69.1019 722.4543,43.1309 689.4283,43.1309" id="Fill-74" fill="#272726"></path>
                <path d="M174.6025,74.2891 L92.7945,74.2891 L92.7945,73.4541 L92.7945,48.8221 L175.3105,48.8221 C178.1475,48.8221 180.5525,49.5901 182.4355,50.9881 C185.3315,53.1391 186.9825,56.7961 186.9825,61.5561 C186.9825,67.4301 183.7405,74.2891 174.6025,74.2891 M270.1545,185.1861 C265.2275,177.8871 240.9645,141.3141 235.2655,132.2101 C232.3395,127.5371 234.3565,123.9251 239.9445,120.6461 C263.2665,106.9641 272.8005,84.1321 272.8005,64.5781 C272.8005,23.8671 243.5975,0.2691 218.3075,0.2691 L0.8375,0.2691 L0.5375,2.2241 C5.0005,3.7661 11.0375,7.8751 11.0375,13.4331 L11.0375,183.6661 C11.0375,190.6731 4.2845,194.4271 0.5375,196.8861 L1.1605,198.8321 L103.0385,198.8321 L103.6615,196.8861 C99.9145,194.4271 92.9625,190.6731 92.9625,183.6661 L92.9625,121.4541 L127.2875,121.4541 C131.7205,121.4541 133.4715,124.1251 135.3535,126.7651 C137.2355,129.4041 166.6775,174.6341 171.7215,182.7091 C175.3615,188.5351 172.9405,194.9321 169.2725,198.5331 L284.4985,198.5331 L284.4985,196.2491 C279.2485,195.1241 274.2845,191.3071 270.1545,185.1861" id="Fill-76" fill="#1A1919"></path>
            </g>
            <g id="Group-81" transform="translate(618.000000, 836.000000)">
                <mask id="mask-14" fill="white">
                    <use xlink:href="#path-13"></use>
                </mask>
                <g id="Clip-80"></g>
                <path d="M0.305,0.166 C0.305,0.166 1.671,3.166 1.671,5.666 L1.671,5.666 L1.671,178.08 C1.671,181.531 1.554,182.949 0.305,184.699 L0.305,184.699 L71.796,184.699 C70.546,182.949 70.329,181.531 70.329,178.08 L70.329,178.08 L70.329,107.454 L111.288,107.454 C114.447,107.454 119.939,107.881 124.497,114.842 L124.497,114.842 C124.497,114.842 156.66,163.947 160.105,169.403 L160.105,169.403 C163.552,174.86 165.848,179.892 164.7,184.699 L164.7,184.699 L250.133,184.699 C250.133,184.699 217.444,134.913 211.844,126.729 L211.844,126.729 C206.244,118.544 207.492,112.487 215.241,109.815 L215.241,109.815 C227.29,105.661 249.8,89.867 249.8,57.578 L249.8,57.578 C249.8,20.576 222.813,0.166 201.552,0.166 L201.552,0.166 L0.305,0.166 Z M71.295,36.322 L159.311,36.322 C169.381,36.322 176.483,43.497 176.483,54.556 L176.483,54.556 C176.483,64.625 169.873,72.789 158.602,72.789 L158.602,72.789 L71.295,72.789 L71.295,36.322 Z" id="Fill-79" mask="url(#mask-14)"></path>
            </g>
            <path d="M694.795,877.823 L694.795,902.454 L775.622,902.454 C784.76,902.454 788.003,895.595 788.003,889.721 L788.003,889.721 C788.003,885.529 786.719,882.195 784.435,879.988 L784.435,879.988 C782.552,878.59 780.148,877.823 777.311,877.823 L777.311,877.823 L694.795,877.823 Z M700.727,883.818 L774.663,883.818 C774.676,883.818 774.688,883.816 774.701,883.816 L774.701,883.816 C778.203,883.816 781.041,886.654 781.041,890.155 L781.041,890.155 C781.041,893.657 778.203,896.495 774.701,896.495 L774.701,896.495 L774.701,896.497 L700.727,896.497 L700.727,883.818 Z" id="Fill-82"></path>
            <path d="M774.663,883.818 L700.727,883.818 L700.727,896.497 L774.701,896.497 L774.701,896.495 C778.203,896.495 781.041,893.657 781.041,890.155 L781.041,890.155 C781.041,886.654 778.203,883.816 774.701,883.816 L774.701,883.816 C774.688,883.816 774.676,883.818 774.663,883.818 L774.663,883.818 Z M702.728,885.817 C702.728,885.817 774.114,885.816 774.143,885.816 L774.143,885.816 C776.517,885.839 778.44,887.777 778.44,890.155 L778.44,890.155 C778.44,892.548 776.494,894.495 774.1,894.495 L774.1,894.495 L774.1,894.497 L702.728,894.497 L702.728,885.817 Z" id="Fill-84"></path>
            <path d="M788.003,889.721 C788.003,895.595 784.76,902.454 775.622,902.454 L775.622,902.454 L694.795,902.454 L694.795,903.289 L776.602,903.289 C785.741,903.289 788.983,896.429 788.983,890.556 L788.983,890.556 C788.983,885.796 787.332,882.139 784.435,879.988 L784.435,879.988 C786.719,882.195 788.003,885.529 788.003,889.721" id="Fill-86"></path>
            <path d="M1236.725,930.331 C1236.725,959.285 1261.222,982.755 1291.446,982.755 L1291.446,982.755 C1321.668,982.755 1346.167,959.285 1346.167,930.331 L1346.167,930.331 C1346.167,901.379 1321.668,877.909 1291.446,877.909 L1291.446,877.909 C1261.222,877.909 1236.725,901.379 1236.725,930.331 M1242.406,929.943 C1242.406,904.311 1264.093,883.536 1290.847,883.536 L1290.847,883.536 C1317.601,883.536 1339.289,904.311 1339.289,929.943 L1339.289,929.943 C1339.289,955.572 1317.601,976.348 1290.847,976.348 L1290.847,976.348 C1264.093,976.348 1242.406,955.572 1242.406,929.943" id="Fill-88"></path>
            <path d="M1345.426,929.86 C1345.426,958.814 1320.927,982.283 1290.704,982.283 L1290.704,982.283 C1279.581,982.283 1269.24,979.096 1260.604,973.635 L1260.604,973.635 C1269.387,979.387 1280.004,982.755 1291.446,982.755 L1291.446,982.755 C1321.668,982.755 1346.167,959.285 1346.167,930.331 L1346.167,930.331 C1346.167,912.034 1336.375,895.935 1321.545,886.557 L1321.545,886.557 C1335.961,895.998 1345.426,911.868 1345.426,929.86" id="Fill-90"></path>
            <g id="Group-94" transform="translate(108.000000, 883.000000)">
                <mask id="mask-16" fill="white">
                    <use xlink:href="#path-15"></use>
                </mask>
                <g id="Clip-93"></g>
                <path d="M69.77,0.423 L0.946,0.423 L0.946,13.104 L69.808,13.104 L69.808,13.102 C73.309,13.102 76.148,10.264 76.148,6.762 L76.148,6.762 C76.148,3.26 73.309,0.422 69.808,0.422 L69.808,0.422 C69.795,0.422 69.783,0.423 69.77,0.423 L69.77,0.423 Z M2.945,2.424 C2.945,2.424 69.221,2.423 69.25,2.422 L69.25,2.422 C71.624,2.446 73.548,4.383 73.548,6.762 L73.548,6.762 C73.548,9.154 71.601,11.102 69.208,11.102 L69.208,11.102 L69.208,11.104 L2.945,11.104 L2.945,2.424 Z" id="Fill-92" mask="url(#mask-16)"></path>
            </g>
            <path d="M192.01,889.327 C192.01,895.201 188.768,902.061 179.63,902.061 L179.63,902.061 L103.013,902.061 L103.013,902.896 L180.61,902.896 C189.749,902.896 192.99,896.036 192.99,890.162 L192.99,890.162 C192.99,885.402 191.34,881.745 188.443,879.595 L188.443,879.595 C190.726,881.802 192.01,885.135 192.01,889.327" id="Fill-95"></path>
            <path d="M108.177,954.469 L108.177,975.152 L179.104,975.152 C186.206,975.152 193.932,971.166 193.932,965.185 L193.932,965.185 C193.932,958.332 187.079,954.469 178.481,954.469 L178.481,954.469 L108.177,954.469 Z M110.177,956.469 L178.606,956.469 C183.964,956.469 191.665,958.689 191.665,965.185 L191.665,965.185 C191.665,969.172 185.833,972.922 178.731,972.922 L178.731,972.922 L110.177,972.922 L110.177,956.469 Z" id="Fill-97"></path>
            <path d="M182.095,948.505 C191.387,948.505 199.664,955.763 199.664,964.715 L199.664,964.715 C199.664,973.666 190.817,980.924 180.924,980.924 L180.924,980.924 L102.244,980.924 L102.244,981.864 L181.548,981.864 C191.44,981.864 200.287,974.395 200.287,965.185 L200.287,965.185 C200.287,955.972 192.01,948.505 182.718,948.505 L182.718,948.505 L182.095,948.505 Z" id="Fill-99"></path>
            <path d="M27.404,835.989 C27.404,835.989 28.248,837.801 28.248,839.166 L28.248,839.166 L28.248,1013.881 C28.248,1017.52 28.484,1019.275 27.215,1020.885 L27.215,1020.885 L226.164,1020.885 C253.164,1020.885 282.832,997.832 282.832,967.332 L282.832,967.332 C282.832,941.249 264.873,926.499 254.498,920.499 L254.498,920.499 C260.542,916.904 273.248,908.374 273.373,882.371 L273.373,882.371 C273.483,859.626 256.498,835.989 234.998,835.989 L234.998,835.989 L27.404,835.989 Z M97.513,871.929 L181.319,871.929 C191.388,871.929 198.491,879.103 198.491,890.162 L198.491,890.162 C198.491,900.232 191.882,908.396 180.61,908.396 L180.61,908.396 L97.513,908.396 L97.513,871.929 Z M96.744,943.005 L182.593,943.005 C195.427,943.005 205.395,952.351 205.395,965.185 L205.395,965.185 C205.395,979.264 192.99,987.363 182.095,987.363 L182.095,987.363 L96.744,987.363 L96.744,943.005 Z" id="Fill-101"></path>
            <g id="Group-105" transform="translate(1021.000000, 309.000000)">
                <mask id="mask-18" fill="white">
                    <use xlink:href="#path-17"></use>
                </mask>
                <g id="Clip-104"></g>
                <path d="M176.824,0.89 C163.62,6.446 9.865,71.143 4.851,73.009 C2.588,73.851 1.3,74.509 0.067,74.771 L0.067,138.623 C1.314,138.69 2.459,138.488 3.678,138.01 C5.722,137.208 63.388,114.671 78.771,108.709 C90.334,104.229 98.202,115.719 97.062,124.35 C96.536,128.326 78.301,290.71 76.77,304.018 C75.998,310.723 75.894,316.886 67.348,320.622 C57.063,325.118 22.238,340.18 6.504,346.999 C4.395,347.844 2.308,348.453 0.067,348.542 L0.067,418.172 C0.861,417.99 1.667,417.69 2.737,417.379 L117.651,372.325 C118.392,371.96 119.047,371.654 119.287,370.121 L177.576,1.79 C177.771,0.912 177.417,0.641 176.824,0.89" id="Fill-103" mask="url(#mask-18)"></path>
            </g>
            <g id="Group-108" transform="translate(721.000000, 20.000000)">
                <mask id="mask-20" fill="white">
                    <use xlink:href="#path-19"></use>
                </mask>
                <g id="Clip-107"></g>
                <path d="M0.713,3.526 C1.201,6.815 8.756,64.694 9.364,68.35 L9.364,68.35 C9.973,72.006 10.217,72.493 12.289,73.346 L12.289,73.346 C14.361,74.199 81.256,99.909 85.887,101.737 L85.887,101.737 C90.516,103.564 91.004,105.149 91.736,109.901 L91.736,109.901 C91.736,109.901 161.189,552.338 164.357,571.59 L164.357,571.59 C164.878,574.753 161.961,578.808 156.965,576.737 L156.965,576.737 L104.529,553.928 C103.906,553.657 103.415,554 103.581,554.917 L103.581,554.917 C103.748,555.833 118.248,633.583 118.748,636.583 L118.748,636.583 C119.248,639.583 120.582,640.416 123.248,641.416 L123.248,641.416 C123.248,641.416 287.415,703.833 294.748,706.5 L294.748,706.5 C297.354,707.448 298.693,707.487 300.068,707.172 L300.068,707.172 L300.068,637.542 C297.93,637.627 295.654,637.239 293.08,636.119 L293.08,636.119 C278.663,629.839 242.175,613.783 232.786,609.622 L232.786,609.622 C224.26,605.843 224.137,599.723 223.366,593.018 L223.366,593.018 C221.834,579.71 203.599,417.326 203.073,413.35 L203.073,413.35 C201.933,404.719 209.775,393.295 221.364,397.709 L221.364,397.709 C236.016,403.292 292.804,425.479 295.984,426.657 L295.984,426.657 C297.549,427.237 298.856,427.557 300.068,427.623 L300.068,427.623 L300.068,363.771 C298.446,364.117 296.919,363.776 293.397,362.252 L293.397,362.252 C287.194,359.572 206.274,324.844 199.206,321.798 L199.206,321.798 C192.139,318.752 191.896,315.706 191.529,311.319 L191.529,311.319 C191.164,306.933 163.261,64.451 162.652,58.115 L162.652,58.115 C162.043,51.779 159.362,48.123 152.294,45.93 L152.294,45.93 C145.227,43.737 6.075,1.819 3.394,0.844 L3.394,0.844 C2.569,0.545 1.952,0.372 1.507,0.372 L1.507,0.372 C0.506,0.372 0.376,1.248 0.713,3.526" id="Fill-106" mask="url(#mask-20)"></path>
            </g>
            <g id="Group-131" transform="translate(704.000000, 0.000000)">
                <path d="M384.7012,626.4521 C390.5672,623.9521 389.8542,620.0401 390.6442,613.0451 C390.6442,613.0451 410.2842,439.7361 410.9102,434.6521 C412.2742,423.5811 403.5822,417.8621 398.3132,419.9151 C388.3322,423.8051 325.6092,447.8041 320.2412,449.8601 C319.4522,450.1621 318.3992,450.5101 317.0672,450.5661 L317.0672,456.1951 C317.9382,456.2261 318.8352,456.0141 320.1232,455.4991 C322.6232,454.4991 397.1232,425.7161 399.2482,425.1071 C401.3732,424.4991 406.3732,425.4991 405.8732,432.4991 C405.3732,439.4991 385.3732,614.8741 384.7482,618.1241 C384.1232,621.3741 382.6232,622.2491 379.8732,623.7491 C377.1232,625.2491 324.6232,648.2491 321.1232,649.7491 C319.3992,650.4871 318.2222,650.8281 317.0672,650.8231 L317.0672,654.8471 C319.0502,654.8811 321.0042,654.3821 323.2342,653.4401 C323.2342,653.4401 377.2972,629.6071 384.7012,626.4521" id="Fill-109" fill="#3B3C39"></path>
                <path d="M500.415,292.8325 C497.081,294.1655 333.665,360.1655 319.373,365.8745 C318.47,366.2345 317.723,366.5115 317.067,366.7195 L317.067,374.7965 C317.551,374.6655 318.094,374.4785 318.737,374.2235 C320.584,373.4915 495.186,301.2495 501.123,298.7495 C502.844,298.0245 503.542,298.4845 503.186,300.6865 C502.773,303.2335 443.436,678.5615 442.936,682.1245 C442.436,685.6865 440.248,686.9995 438.248,687.8115 C436.248,688.6245 326.561,731.6245 320.326,733.9265 C319.269,734.3175 318.189,734.6785 317.067,734.8945 L317.067,739.0395 C317.925,738.8115 318.845,738.4605 319.992,738.0225 C319.992,738.0225 440.581,690.6655 442.915,689.5825 C445.249,688.4985 445.665,687.1655 446.081,684.9995 C446.497,682.8325 506.248,304.4995 507.165,298.8325 C507.923,294.1525 503.749,291.4995 500.415,292.8325" id="Fill-111" fill="#3B3C39"></path>
                <path d="M384.3477,629.6221 C392.8937,625.8861 392.9977,619.7231 393.7697,613.0181 C395.3007,599.7101 413.5357,437.3261 414.0617,433.3501 C415.2017,424.7191 407.3337,413.2281 395.7717,417.7091 C380.3877,423.6711 322.7217,446.2071 320.6777,447.0101 C319.4587,447.4881 318.3147,447.6901 317.0677,447.6231 L317.0677,450.5661 C318.3997,450.5101 319.4517,450.1621 320.2417,449.8601 C325.6097,447.8041 388.3317,423.8051 398.3137,419.9151 C403.5817,417.8621 412.2747,423.5811 410.9097,434.6521 C410.2847,439.7361 390.6447,613.0451 390.6447,613.0451 C389.8547,620.0401 390.5677,623.9521 384.7017,626.4521 C377.2967,629.6071 323.2347,653.4401 323.2347,653.4401 C321.0037,654.3821 319.0497,654.8811 317.0677,654.8471 L317.0677,657.5421 C319.3077,657.4531 321.3947,656.8441 323.5037,655.9991 C339.2387,649.1801 374.0637,634.1181 384.3477,629.6221" id="Fill-113" fill="#9E9F9E"></path>
                <path d="M501.123,298.749 C495.186,301.249 320.584,373.491 318.737,374.224 C318.094,374.479 317.551,374.666 317.067,374.796 L317.067,383.771 C318.3,383.509 319.588,382.851 321.851,382.009 C326.865,380.143 480.62,315.446 493.824,309.89 C494.417,309.641 494.77,309.912 494.576,310.79 L436.287,679.121 C436.047,680.654 435.392,680.96 434.651,681.325 L319.737,726.379 C318.667,726.69 317.861,726.99 317.067,727.172 L317.067,734.895 C318.189,734.679 319.269,734.317 320.326,733.927 C326.561,731.624 436.248,688.624 438.248,687.811 C440.248,686.999 442.435,685.686 442.935,682.124 C443.435,678.561 502.773,303.233 503.186,300.686 C503.542,298.484 502.844,298.025 501.123,298.749" id="Fill-115" fill="#5C5D5C"></path>
                <path d="M507.165,298.8325 C506.248,304.4995 446.497,682.8325 446.081,684.9995 C445.665,687.1655 445.249,688.4985 442.915,689.5825 C440.581,690.6655 319.992,738.0225 319.992,738.0225 C318.845,738.4605 317.925,738.8115 317.067,739.0395 C315.138,739.5515 313.527,739.4415 310.377,738.2925 C305.597,736.5495 138.581,673.2495 127.414,668.9155 C124.936,667.9995 123.623,666.8745 122.998,663.2495 C122.373,659.6245 103.998,561.5825 103.998,561.5825 C103.248,557.3325 107.165,554.7495 110.582,556.3325 L158.415,577.1655 C161.248,578.1655 165.832,576.9155 164.832,570.7495 C160.628,545.3325 96.998,135.4155 96.998,135.4155 C96.332,132.3325 96.165,131.5825 92.498,130.0825 C88.832,128.5825 22.082,103.2485 19.082,101.9155 C16.082,100.5825 14.819,98.1575 14.332,94.1655 C12.498,79.1655 4.581,11.0825 4.248,8.3325 C3.915,5.5825 5.921,2.8955 11.248,4.5825 C21.248,7.7495 174.388,54.4785 178.332,55.6655 C182.3,56.8595 187.709,59.3625 188.665,67.0825 C189.498,73.8115 217.686,323.2495 217.686,323.2495 C217.936,326.3115 218.123,328.4995 221.436,329.8745 C224.748,331.2495 309.188,365.6455 311.082,366.3485 C313.532,367.2565 314.612,367.4995 317.067,366.7195 C317.723,366.5115 318.47,366.2345 319.373,365.8745 C333.665,360.1655 497.081,294.1655 500.415,292.8325 C503.749,291.4995 507.923,294.1525 507.165,298.8325 M509.248,276.8325 C506.248,277.9155 319.748,349.4995 317.665,350.3325 C317.445,350.4205 317.254,350.4985 317.067,350.5725 C315.485,351.2045 314.954,351.3455 313.165,350.7495 C311.165,350.0825 239.165,322.3325 235.415,320.9995 C231.665,319.6655 230.915,317.9995 230.582,315.7495 C230.248,313.4995 201.248,63.9155 200.165,55.3325 C199.082,46.7495 194.165,45.1655 188.665,43.6655 C152.332,34.5825 50.665,9.3325 6.665,0.3325 C2.182,-0.5845 0.248,1.4995 0.582,4.9155 C0.915,8.3325 9.915,85.4155 11.165,95.7495 C11.859,101.4865 14.383,102.6335 17.546,103.9995 C17.546,103.9995 83.699,132.5605 85.998,133.5825 C89.53,135.1525 89.665,137.6655 89.928,139.7495 L153.582,560.9155 C153.832,564.6655 150.665,566.5825 147.332,565.4995 C144.735,564.4365 105.756,547.7185 102.082,546.2495 C97.915,544.5825 94.67,547.6985 95.332,551.6655 C96.248,557.1655 114.832,658.5825 116.202,666.9545 C116.983,671.7265 118.159,672.1055 120.832,673.2495 C124.521,674.8275 306.248,750.8325 310.665,752.4995 C314.348,753.8885 314.908,754.4045 317.067,753.7185 C317.498,753.5825 317.986,753.4015 318.582,753.1655 C322.166,751.7495 443.671,701.0295 447.664,699.0825 C451.081,697.4155 451.331,695.5825 451.831,691.8325 C452.331,688.0825 516.248,287.3325 517.165,282.3325 C518.082,277.3325 512.248,275.7495 509.248,276.8325" id="Fill-117" fill="#222121"></path>
                <path d="M236.4087,420.4497 C226.8457,416.7067 222.6767,426.5777 222.9667,431.9627 C223.0987,434.4187 243.5767,613.7597 243.5767,613.7597 C244.3287,620.5337 245.1107,624.3627 251.6247,627.2497 C261.0287,631.4177 297.9337,647.5267 312.3587,653.7677 C314.0347,654.4927 315.5587,654.8207 317.0677,654.8467 L317.0677,650.8237 C315.8767,650.8197 314.7107,650.4477 312.9977,649.7487 C309.6227,648.3737 257.3727,625.1237 253.6227,623.3737 C249.8727,621.6237 249.7477,619.6237 249.2477,616.6237 C248.7477,613.6237 228.6477,431.5237 228.6477,431.5237 C228.6477,426.6487 232.2477,424.2487 235.7477,425.3737 C239.2477,426.4987 312.1477,454.6237 314.3727,455.4987 C315.4517,455.9227 316.2477,456.1667 317.0677,456.1957 L317.0677,450.5667 C316.0117,450.6117 314.7837,450.4777 313.3457,449.9637 C310.1167,448.8087 246.8717,424.5447 236.4087,420.4497" id="Fill-119" fill="#3B3C39"></path>
                <path d="M311.082,366.3481 C309.188,365.6461 224.748,331.2491 221.436,329.8741 C218.123,328.4991 217.936,326.3111 217.686,323.2491 C217.686,323.2491 189.498,73.8111 188.665,67.0821 C187.709,59.3631 182.3,56.8591 178.332,55.6651 C174.388,54.4791 21.248,7.7491 11.248,4.5821 C5.921,2.8951 3.915,5.5821 4.248,8.3321 C4.581,11.0821 12.498,79.1661 14.332,94.1651 C14.819,98.1571 16.082,100.5821 19.082,101.9151 C22.082,103.2481 88.832,128.5821 92.498,130.0821 C96.165,131.5821 96.332,132.3321 96.998,135.4151 C96.998,135.4151 160.628,545.3321 164.832,570.7491 C165.832,576.9151 161.248,578.1651 158.415,577.1651 L110.582,556.3321 C107.165,554.7491 103.248,557.3321 103.998,561.5821 C103.998,561.5821 122.373,659.6241 122.998,663.2491 C123.623,666.8741 124.936,667.9991 127.414,668.9161 C138.581,673.2501 305.597,736.5501 310.377,738.2931 C313.527,739.4411 315.138,739.5521 317.067,739.0391 L317.067,734.8941 C315.454,735.2031 313.749,735.1991 311.865,734.4571 C307.898,732.8941 142.186,670.1861 133.873,666.9361 C130.036,665.4361 129.748,664.6241 129.061,661.1241 C128.373,657.6241 112.165,570.4161 112.165,570.4161 C110.998,565.3321 115.455,562.7151 118.821,564.2111 C118.821,564.2111 160.795,582.9001 165.756,584.7611 C170.717,586.6211 172.915,583.0821 172.112,578.2491 C168.771,558.1961 102.655,134.1341 102.655,134.1341 C102.097,130.5581 101.498,129.3321 98.415,128.0821 C95.332,126.8321 28.665,101.2491 25.082,99.7491 C21.498,98.2491 20.499,96.0641 19.998,92.2491 C17.998,76.9991 10.442,21.5161 9.728,15.7501 C9.311,12.3741 10.568,10.0731 14.998,11.4991 C22.083,13.7801 172.811,58.4991 179.748,61.4991 C186.686,64.4991 186.873,69.9361 187.373,74.1241 C187.873,78.3111 215.811,325.3741 216.186,329.1241 C216.51,332.3731 217.561,333.5611 219.498,334.5611 C221.436,335.5611 300.311,368.9991 313.811,374.6241 C314.876,375.0681 315.729,375.1591 317.067,374.7961 L317.067,366.7191 C314.612,367.4991 313.532,367.2571 311.082,366.3481" id="Fill-121" fill="#3B3C39"></path>
                <path d="M238.3633,417.7095 C226.7753,413.2945 218.9323,424.7195 220.0723,433.3495 C220.5983,437.3265 238.8343,599.7105 240.3653,613.0175 C241.1373,619.7225 241.2593,625.8425 249.7863,629.6225 C259.1753,633.7835 295.6633,649.8385 310.0803,656.1185 C312.6543,657.2395 314.9303,657.6265 317.0673,657.5425 L317.0673,654.8465 C315.5583,654.8205 314.0353,654.4935 312.3583,653.7675 C297.9333,647.5265 261.0293,631.4175 251.6243,627.2505 C245.1103,624.3625 244.3293,620.5345 243.5773,613.7595 C243.5773,613.7595 223.0983,434.4185 222.9663,431.9625 C222.6763,426.5785 226.8453,416.7065 236.4083,420.4495 C246.8723,424.5445 310.1163,448.8095 313.3453,449.9635 C314.7843,450.4775 316.0113,450.6115 317.0673,450.5665 L317.0673,447.6235 C315.8563,447.5575 314.5503,447.2365 312.9833,446.6565 C309.8033,445.4795 253.0163,423.2925 238.3633,417.7095" id="Fill-123" fill="#9E9F9E"></path>
                <path d="M313.8105,374.624 C300.3105,368.999 221.4355,335.561 219.4975,334.561 C217.5605,333.561 216.5105,332.373 216.1855,329.124 C215.8105,325.374 187.8725,78.312 187.3725,74.124 C186.8725,69.937 186.6855,64.499 179.7485,61.499 C172.8105,58.499 22.0835,13.78 14.9985,11.499 C10.5675,10.073 9.3105,12.374 9.7285,15.75 C10.4425,21.517 17.9985,76.999 19.9985,92.249 C20.4985,96.064 21.4985,98.249 25.0815,99.749 C28.6645,101.249 95.3315,126.832 98.4145,128.082 C101.4985,129.332 102.0975,130.559 102.6545,134.134 C102.6545,134.134 168.7715,558.196 172.1125,578.249 C172.9145,583.082 170.7165,586.621 165.7555,584.761 C160.7945,582.9 118.8205,564.211 118.8205,564.211 C115.4555,562.715 110.9985,565.332 112.1645,570.416 C112.1645,570.416 128.3735,657.624 129.0605,661.124 C129.7485,664.624 130.0355,665.436 133.8735,666.936 C142.1855,670.186 307.8985,732.895 311.8655,734.457 C313.7485,735.199 315.4545,735.203 317.0675,734.895 L317.0675,727.172 C315.6925,727.486 314.3545,727.448 311.7475,726.5 C304.4145,723.833 140.2485,661.416 140.2485,661.416 C137.5815,660.416 136.2485,659.583 135.7485,656.583 C135.2485,653.583 120.7485,575.833 120.5815,574.916 C120.4145,574 120.9065,573.657 121.5295,573.928 L173.9645,596.736 C178.9605,598.808 181.8775,594.753 181.3565,591.59 C178.1885,572.338 108.7355,129.901 108.7355,129.901 C108.0035,125.149 107.5165,123.564 102.8865,121.737 C98.2555,119.909 31.3605,94.199 29.2895,93.346 C27.2175,92.493 26.9735,92.006 26.3645,88.35 C25.7555,84.694 18.2005,26.815 17.7135,23.525 C17.2265,20.235 17.7135,19.87 20.3935,20.845 C23.0745,21.819 162.2275,63.736 169.2945,65.93 C176.3615,68.123 179.0425,71.779 179.6515,78.115 C180.2615,84.451 208.1645,326.933 208.5295,331.319 C208.8955,335.706 209.1395,338.752 216.2065,341.798 C223.2735,344.845 304.1945,379.572 310.3965,382.252 C313.9195,383.775 315.4465,384.117 317.0675,383.771 L317.0675,374.796 C315.7295,375.159 314.8755,375.068 313.8105,374.624" id="Fill-125" fill="#5C5D5C"></path>
                <path d="M253.623,623.374 C257.373,625.124 309.623,648.374 312.998,649.749 C314.711,650.447 315.877,650.819 317.067,650.823 L317.067,614.487 C316.157,614.598 315.313,614.452 314.165,614 C311.37,612.899 275.998,599.082 273.998,598.249 C273.12,597.883 272.494,597.467 272.035,596.813 L249.964,619.888 C250.477,621.235 251.426,622.349 253.623,623.374" id="Fill-127" fill="#4D4E4C"></path>
                <path d="M261.1646,454.8325 C265.8316,457.0825 310.9976,478.4995 313.4976,479.5825 C315.0176,480.2405 316.0146,480.5235 317.0676,480.4245 L317.0676,456.1955 C316.2476,456.1665 315.4526,455.9225 314.3726,455.4995 C312.1476,454.6245 239.2476,426.4995 235.7476,425.3745 C233.5856,424.6785 231.3866,425.3325 230.0206,427.0825 L256.6926,455.6795 C257.7296,454.4835 259.5106,454.0345 261.1646,454.8325" id="Fill-129" fill="#343534"></path>
            </g>
            <path d="M932.648,431.523 C932.648,431.523 952.748,613.624 953.248,616.624 L953.248,616.624 C953.455,617.866 953.601,618.936 953.964,619.888 L953.964,619.888 L976.035,596.814 C975.448,595.979 975.134,594.756 974.915,592.749 L974.915,592.749 C974.165,585.916 960.464,463.873 959.834,458.666 L959.834,458.666 C959.688,457.458 960.047,456.425 960.693,455.68 L960.693,455.68 L934.021,427.082 C933.175,428.163 932.648,429.661 932.648,431.523" id="Fill-132"></path>
            <path d="M1061.165,598.916 C1058.682,600.006 1024.748,613.333 1022.915,613.999 C1022.216,614.253 1021.629,614.419 1021.067,614.487 L1021.067,650.823 C1022.223,650.828 1023.399,650.487 1025.123,649.749 C1028.623,648.249 1081.123,625.249 1083.873,623.749 C1085.852,622.669 1087.176,621.9 1088,620.35 L1063.387,597.435 C1062.869,598.072 1062.151,598.483 1061.165,598.916" id="Fill-134" fill="#595A59"></path>
            <path d="M1077.769,456.789 C1078.357,457.387 1078.727,458.262 1078.665,459.416 L1078.665,459.416 C1078.498,462.499 1065.081,589.249 1064.415,594.499 L1064.415,594.499 C1064.238,595.895 1063.918,596.782 1063.387,597.435 L1063.387,597.435 L1088,620.35 C1088.32,619.746 1088.573,619.034 1088.748,618.124 L1088.748,618.124 C1089.373,614.874 1109.373,439.499 1109.873,432.499 L1109.873,432.499 C1110.081,429.581 1109.329,427.716 1108.233,426.566 L1108.233,426.566 L1077.769,456.789 Z" id="Fill-136"></path>
            <g id="Group-144" transform="translate(958.000000, 424.000000)">
                <path d="M145.248,1.1074 C143.123,1.7154 68.623,30.4994 66.123,31.4994 C64.835,32.0144 63.938,32.2264 63.067,32.1954 L63.067,56.4244 C63.746,56.3604 64.449,56.1414 65.331,55.7494 C67.581,54.7494 114.081,32.9164 115.998,32.0824 C117.197,31.5614 118.787,31.7904 119.769,32.7894 L150.232,2.5654 C148.699,0.9554 146.487,0.7524 145.248,1.1074" id="Fill-138" fill="#2C2C2B"></path>
                <path d="M122.9131,35.7666 C122.9131,35.8486 122.9201,35.9256 122.9151,36.0106 C122.7431,39.1246 108.9601,167.1616 108.2751,172.4646 C107.9161,175.2516 106.9861,176.0416 104.9361,176.9266 C102.3851,178.0276 67.5231,191.4896 65.6411,192.1626 C63.7581,192.8356 62.6691,192.9026 60.7611,192.1636 C57.8901,191.0516 21.5511,177.0946 19.4961,176.2526 C17.4411,175.4106 16.7311,174.3106 16.3281,170.6966 C15.5581,163.7936 1.4821,40.5126 0.8351,35.2526 C0.8121,35.0666 0.8041,34.8866 0.8041,34.7096 C0.4971,35.3396 0.3571,36.0836 0.4601,36.9106 C1.1121,42.1706 15.2731,165.4526 16.0481,172.3546 C16.4541,175.9696 17.1681,177.0686 19.2351,177.9116 C21.3031,178.7526 57.8651,192.7116 60.7541,193.8246 C62.6741,194.5626 63.7691,194.4956 65.6641,193.8236 C67.5591,193.1496 102.6341,179.6856 105.2011,178.5846 C107.2641,177.6996 108.1991,176.9106 108.5601,174.1226 C109.2491,168.8196 123.1171,40.7836 123.2901,37.6686 C123.3321,36.9166 123.1841,36.2846 122.9131,35.7666" id="Fill-140" fill="#272726"></path>
                <path d="M119.2607,32.3794 C120.1287,32.9524 120.7437,33.9574 120.6647,35.4164 C120.4977,38.4994 107.0807,165.2494 106.4147,170.4994 C106.0657,173.2584 105.1607,174.0404 103.1647,174.9164 C100.6817,176.0054 66.7477,189.3324 64.9147,189.9994 C63.0817,190.6664 62.0227,190.7314 60.1647,190.0004 C57.3697,188.8994 21.9977,175.0824 19.9977,174.2494 C17.9977,173.4154 17.3067,172.3264 16.9137,168.7494 C16.1647,161.9154 2.4647,39.8734 1.8337,34.6654 C1.6557,33.1954 2.2267,31.9854 3.1547,31.2394 C1.6627,31.8184 0.5957,33.3144 0.8347,35.2524 C1.4827,40.5124 15.5577,163.7944 16.3277,170.6964 C16.7317,174.3114 17.4417,175.4104 19.4957,176.2534 C21.5507,177.0944 57.8897,191.0514 60.7607,192.1644 C62.6687,192.9024 63.7577,192.8364 65.6407,192.1634 C67.5237,191.4894 102.3847,178.0274 104.9367,176.9264 C106.9867,176.0414 107.9157,175.2524 108.2757,172.4644 C108.9597,167.1614 122.7427,39.1254 122.9147,36.0104 C123.0557,33.4574 121.0677,32.2634 119.2607,32.3794" id="Fill-142" fill="#3B3C39"></path>
            </g>
        </g>
    </g>
</svg>