<?xml version="1.0" encoding="utf-8"?>
<!-- Generator: Adobe Illustrator 24.3.0, SVG Export Plug-In . SVG Version: 6.00 Build 0)  -->
<svg version="1.1" id="Calque_1" xmlns="http://www.w3.org/2000/svg" xmlns:xlink="http://www.w3.org/1999/xlink" x="0px" y="0px"
	 viewBox="0 0 1920 1080" style="enable-background:new 0 0 1920 1080;" xml:space="preserve">
<style type="text/css">
	.st0{fill:#FFFFFF;}
</style>
<path d="M793.4,240.5c1.6,0.6,2.9,1.4,4.3,1.7c3,0.7,71.5,12.9,76.6,13.5c2.8,0.3,4.1,1.3,4.4,4.4c0.8,6.9,22.3,138.4,23.1,142
	c0.3,1.3,1.4,2.9,2.6,3.4c17.8,7.7,35.7,15.2,53.7,22.7c1.3,0.5,3.4,0.2,4.7-0.4c33.9-16.5,67.7-33.1,101.6-49.7
	c0.3-0.1,0.7-0.1,1.5-0.3c0.1,1.2,0.4,2.4,0.3,3.5c-0.9,9.2-29.6,219.5-30.8,225.6c-0.3,1.5-1.7,3.3-3.1,4
	c-10.6,5.4-56.3,27.8-68.5,33.6c-1.6,0.7-4,0.7-5.6,0.1c-32.5-13.3-65-26.8-97.5-40.4c-1.2-0.5-2.6-2.3-2.8-3.7
	c-1.5-11.5-6.8-47.2-8-53.6c-0.4-2.1-0.5-4.2-0.8-7.5c9.6,4.1,18.2,7.8,27.5,11.8c-0.2-3.9-32.5-238.1-33.3-244.3
	c-0.3-2.4-0.2-5.1-1.3-7.2c-0.9-1.8-2.9-3.4-4.8-4.2c-8.1-3.7-32.8-13.9-36.8-15.8c-1.2-0.6-2.4-2.1-2.6-3.4
	C796.6,267.8,793.7,244.3,793.4,240.5z M911.1,467.3c0.2,2,0.3,3.4,0.5,4.9c1.8,11.1,3.7,22.1,5.5,33.2c2,12.8,3.9,25.5,6,38.3
	c1.4,8.8,3,17.6,4.7,26.4c0.2,1.2,1.3,2.7,2.4,3.1c9.5,3.8,19,7.4,28.6,10.8c1.6,0.6,3.9,0.2,5.4-0.6c10-5,19.9-10.4,29.9-15.4
	c2.2-1.1,3.2-2.6,3.5-4.9c0.5-4.4,1-8.8,1.7-13.2c3.2-22,6.3-44,9.5-66.1c0.9-6.2,1.6-12.3,2.6-18.5c0.4-2.7-0.9-2.9-3-2.3
	c-0.6,0.2-1.2,0.6-1.8,0.9c-14.6,7.3-29.1,14.7-43.7,21.9c-0.9,0.5-2.3,0.7-3.2,0.4c-5.3-2-10.6-4.1-15.9-6.3
	c-9.7-4-19.3-8.1-29-12.1C913.9,467.4,912.8,467.5,911.1,467.3z"/>
<path d="M438,802.4c0.4-3.3,1.1-5.9,1.1-8.6c0-27,0-53.9-0.1-80.9c0-2.6,0-5.2-0.4-7.7c-0.2-1.6-1.1-3-1.7-4.7
	c1-0.1,1.9-0.2,2.8-0.2c37,0,74.1-0.1,111.1,0c8.9,0,17.9,5.9,21.4,15.9c3.7,10.4,3,20.3-4.2,29.2c-1.3,1.6-0.5,2.5,0.6,3.8
	c3,3.9,6.8,7.5,8.6,11.9c6,14.9-1.1,31.1-15.8,37.6c-5.1,2.3-10.5,3.6-16.2,3.6c-34.2-0.1-68.3,0-102.5,0
	C441.2,802.4,439.4,802.4,438,802.4z M504,761C504,761,504,761,504,761c-6.9-0.1-13.7,0-20.6-0.1c-2,0-3.3,0.5-3.3,2.7
	c0,4.3,0,8.5,0,12.8c0,2.8,1.4,3.8,4.1,3.8c5.8-0.1,11.5-0.1,17.3-0.2c7.4-0.1,14.7-0.1,22.1-0.3c6.1-0.2,10.2-4.3,10.1-9.9
	c-0.1-4.9-4.4-8.8-10-8.9C517.2,761,510.6,761,504,761z M503.4,738.5C503.4,738.5,503.4,738.5,503.4,738.5c6.5,0,12.9,0.1,19.4,0
	c4.1,0,7-2.9,7.2-7.1c0.2-4-3.1-7.8-7-7.9c-13.1-0.1-26.2,0-39.4-0.1c-2.2,0-3.1,1-3,3.1c0,2.9,0,5.8,0,8.6c0,2.3,0.9,3.4,3.4,3.4
	C490.5,738.4,497,738.5,503.4,738.5z"/>
<path d="M1190.5,700.2c1.4,0,2.9,0,4.4,0c13.6,0,27.3,0,40.9,0.2c1.4,0,3.1,0.9,4,1.9c6.9,8.1,13.7,16.3,20.4,24.5
	c7.2,8.8,14.3,17.6,21.5,26.3c0.5,0.7,1.6,0.9,2.5,1.3c0.3-0.8,0.8-1.6,0.8-2.4c0.2-15.5,0.3-31,0.3-46.5c0-1.5-0.6-3.1-1-4.9
	c14.9,0,29.7,0,43.9,0c-0.3,3.1-1,6-1,9c-0.1,28.8-0.1,57.7,0,86.5c0,1.9,0.3,3.9,0.4,6.2c-1,0.1-33.8,0.1-48.9,0.3
	c-3.1,0-5-1.1-6.7-3.3c-10-12.6-20-25.2-30-37.8c-1.7-2.2-3.5-4.3-5.3-6.4c-0.6-0.7-1.4-1.2-2.8-2.5c0,17,0,33.1,0,49.6
	c-14.5,0-29.1,0-43.1,0c0.3-3.3,0.8-6.4,0.8-9.6c0.1-29,0.1-58.1,0-87.1C1191.6,703.8,1190.9,702.2,1190.5,700.2z"/>
<path d="M749.8,700.3c2.6,0,5.2,0,7.7,0c33.6,0,67.3,0,100.9,0c17.5,0,30.7,12.8,31.3,30.4c0.4,11.3-2.9,21-12.1,28
	c-2.1,1.6-4.7,2.5-7.1,3.8c-2.8,1.5-3,2.6-1.3,5.2c6.3,9.5,12.5,19.1,18.9,28.6c1.3,2,3,3.7,4.8,5.9c-18.3,0-36.2,0-54.7,0
	c2.9-3.7,0.3-6.4-1.4-9.1c-5.9-9.2-11.9-18.3-17.8-27.5c-1.6-2.5-3.6-3.7-6.9-3.5c-4.7,0.4-9.5,0.1-14.3,0c-2.6-0.1-3.5,1.1-3.4,3.6
	c0.1,8.9-0.1,17.9,0.1,26.8c0.1,3.1,0.8,6.3,1.2,9.7c-14.6,0-30,0-45.7,0c4.5-6,2.6-12.7,2.7-18.9c0.4-23.7,0.2-47.3,0.3-71
	c0-4.2,0.1-8.3-3.7-11.4C749.4,700.7,749.6,700.5,749.8,700.3z M818,738.7C818,738.7,818,738.7,818,738.7c6.7,0,13.3-0.1,20,0
	c4.5,0.1,7.5-2.4,7.7-6.7c0.2-5.3-2.4-8.5-7.2-8.5c-13.5,0-27.1,0.1-40.6,0c-2.7,0-3.6,1.2-3.5,3.6c0.1,2.9,0.3,5.8,0.1,8.6
	c-0.1,2.3,0.6,3,2.8,3C804.2,738.7,811.1,738.7,818,738.7z"/>
<path d="M1097.4,805.6c-13.5-0.4-27.5-1.5-40.9-6.9c-11.1-4.5-20.8-10.8-26.6-21.8c-4-7.7-6.2-15.9-6.2-24.6
	c0-9.5,1.7-18.6,6.7-26.8c6.1-10,15.4-16,26.1-20.3c11.3-4.5,23-6.1,35-6.1c9,0.1,18.1,0.1,27,1.3c11.5,1.6,22.5,5.5,32.4,12
	c11.9,7.9,17.7,19.3,19.4,33c1.4,11.1,0.5,22.1-5.4,31.7c-6.2,10.1-15.1,17.5-26.6,21.6C1125.4,803.5,1112,805.6,1097.4,805.6z
	 M1097.3,780.5c7.7,0.4,14.6-2.5,20.6-7.7c8.1-6.9,11.3-19.1,8.3-28.6c-5-15.4-22.9-24.5-38.7-19.1c-13.7,4.6-22.5,18.7-19.6,32.7
	C1070.2,769.5,1082.1,781,1097.3,780.5z"/>
<path d="M1351,700.5c2.7,0,5.5,0,8.3,0c35.5-0.1,70.9-0.1,106.4-0.2c3.8,0,7.5-0.6,11.6-0.9c0,8,0,16.8,0,26.1c-3-3-6.5-2.9-10-2.9
	c-22.4,0-44.8-0.1-67.2-0.1c-4.2,0-4.6,0.5-4.6,4.6c0.1,2.8,0,5.6,0,8.4c0,4.5,0.1,4.6,4.8,4.6c13.8,0.1,27.7,0.1,41.5,0.1
	c4.8,0,9.6,0.2,14.3,0c1.9-0.1,3.7-0.8,5.9-1.3c0,7.9,0,15.9,0,23.9c-9.1-3-18.3-1.2-27.3-1.5c-11.7-0.4-23.5-0.1-35.3-0.1
	c-3.4,0-4,0.6-4,4c0,3.7,0,7.4,0,11c0,3.7,0.5,4.2,4.1,4.2c8.5,0,16.9,0,25.4,0.1c13.7,0,27.5,0.1,41.2,0c4.3,0,8.7,1.2,12.9-2.3
	c0,9.6,0,18.6,0,28.6c-4.3-4.6-9.2-4.1-13.9-4.1c-35.5,0-70.9,0-106.4,0c-2.7,0-5.4,0-8.6,0c3.4-5.2,2.2-10.6,2.2-15.7
	c0.1-26.1,0.1-52.1,0.1-78.2C1352.6,706.2,1351.6,703.7,1351,700.5z"/>
<path d="M600.8,802.4c0.6-3.5,1.4-6.5,1.4-9.5c0.1-27.4,0.1-54.9,0.1-82.3c0-3.5,0.3-7-3.1-10c1.3-0.1,1.9-0.3,2.5-0.3
	c36.9,0,73.9,0,110.8-0.1c4.8,0,10,1.6,14.5-3.2c0,9.8,0,18.6,0,28.2c-4.6-4.3-9.9-2.9-14.8-2.9c-20.9-0.1-41.8,0-62.7,0
	c-4.1,0-4.1,0-4.2,4.2c-0.1,3.1-0.2,6.2-0.2,9.2c0,3.7,0.5,4.2,4.1,4.2c12.8,0.1,25.7,0.1,38.5,0.1c4.8,0,9.6,0.2,14.3,0.1
	c3.1-0.1,6.2-0.8,9.4-1.2c0,7.5,0,15.4,0,23.3c-10-2.5-19.9-0.9-29.8-1.2c-9.9-0.3-19.9-0.1-29.9,0c-6.4,0.1-6.4,0.1-6.6,6.5
	c-0.1,3.3-0.1,6.6-0.1,9.8c0,2,1.1,2.9,3,2.9c1,0,2,0,3,0c21.5,0,43,0.1,64.5,0c4.2,0,8.3-0.5,12.8-0.9c0,8,0,16.8,0,25.5
	c-0.4,0.2-0.7,0.3-0.7,0.3c-3.4-2.8-7.4-2.8-11.6-2.7c-36.3,0.1-72.7,0-109,0C604.9,802.4,602.6,802.4,600.8,802.4z"/>
<path d="M899.2,726c0-8.8,0-17.8,0-26.9c6.5,2.2,13,1.1,19.3,1.1c29.4,0.1,58.7,0.1,88.1,0c3.4,0,6.8-0.3,10.6-0.5
	c0,8.5,0,17.4,0,26.1c-2.9-0.2-5.5-0.5-8.1-0.5c-8.6-0.1-17.1,0-25.7-0.1c-2.8,0-3.9,1-3.9,3.8c0.1,21.9,0,43.7,0.3,65.6
	c0,2.4,1.5,4.9,2.4,7.5c-15.9,0-32.2,0-48.5,0c-0.2-0.2-0.5-0.3-0.7-0.5c4.3-2.9,3.7-7.1,3.7-11.1c0-20.9-0.1-41.7-0.1-62.6
	c0-2.7-1.8-2.7-3.6-2.7c-9.1,0-18.1-0.1-27.2,0C903.8,725.4,901.7,725.8,899.2,726z"/>
<path class="st0" d="M218.5,724.1c1.5,0.2,2.4,0.1,3.2,0.4c8.5,3.5,16.9,7.1,25.3,10.6c4.6,1.9,9.2,3.8,13.9,5.5
	c0.8,0.3,2,0.1,2.8-0.3c12.8-6.3,25.5-12.8,38.2-19.2c0.5-0.3,1-0.6,1.6-0.8c1.8-0.5,3-0.3,2.6,2.1c-0.8,5.4-1.5,10.8-2.2,16.2
	c-2.8,19.3-5.6,38.5-8.3,57.8c-0.5,3.8-1,7.7-1.5,11.5c-0.2,2.1-1.1,3.3-3,4.3c-8.8,4.4-17.4,9.1-26.2,13.5c-1.4,0.7-3.4,1-4.8,0.5
	c-8.4-3-16.7-6.2-25-9.4c-0.9-0.4-1.9-1.7-2.1-2.7c-1.5-7.7-2.8-15.4-4.1-23.1c-1.8-11.2-3.5-22.3-5.3-33.5
	c-1.6-9.7-3.2-19.4-4.8-29.1C218.8,727.1,218.7,725.8,218.5,724.1z"/>
<path class="st0" d="M504,761c6.6,0,13.1-0.1,19.7,0c5.6,0.1,9.9,4,10,8.9c0.1,5.5-4,9.7-10.1,9.9c-7.4,0.2-14.7,0.2-22.1,0.3
	c-5.8,0.1-11.5,0.1-17.3,0.2c-2.7,0.1-4.1-0.9-4.1-3.8c0-4.3,0-8.5,0-12.8c0-2.3,1.4-2.8,3.3-2.7C490.3,761,497.2,760.9,504,761
	C504,761,504,761,504,761z"/>
<path class="st0" d="M503.4,738.5c-6.5,0-12.9-0.1-19.4,0c-2.5,0-3.4-1-3.4-3.4c0-2.9,0-5.8,0-8.6c0-2.1,0.8-3.1,3-3.1
	c13.1,0,26.2,0,39.4,0.1c3.9,0,7.1,3.9,7,7.9c-0.2,4.2-3,7.1-7.2,7.1C516.4,738.6,509.9,738.5,503.4,738.5
	C503.4,738.5,503.4,738.5,503.4,738.5z"/>
<path class="st0" d="M818,738.7c-6.9,0-13.7-0.1-20.6,0c-2.2,0-3-0.7-2.8-3c0.2-2.9-0.1-5.8-0.1-8.6c-0.1-2.4,0.8-3.6,3.5-3.6
	c13.5,0.1,27.1,0,40.6,0c4.8,0,7.4,3.3,7.2,8.5c-0.2,4.3-3.2,6.8-7.7,6.7C831.3,738.6,824.6,738.7,818,738.7
	C818,738.7,818,738.7,818,738.7z"/>
<path class="st0" d="M1097.3,780.5c-15.2,0.5-27-11-29.5-22.7c-2.9-14,6-28.1,19.6-32.7c15.9-5.4,33.7,3.7,38.7,19.1
	c3.1,9.5-0.2,21.7-8.3,28.6C1111.9,778,1105,780.9,1097.3,780.5z"/>
</svg>
